<svg width="242" height="135" viewBox="0 0 242 135" fill="none" xmlns="http://www.w3.org/2000/svg">
<path d="M2.27174 99.343C5.12068 100.344 8.17951 100.595 11.1535 100.071C14.1276 99.5476 16.9166 98.2666 19.2519 96.352C25.1992 91.3599 27.0642 83.1384 28.5809 75.5237L33.0686 53L23.6734 59.4691C16.9165 64.1213 10.0079 68.923 5.32994 75.6614C0.651978 82.3998 -1.38888 91.5991 2.36862 98.8906" fill="#E6E6E6"/>
<path d="M3.72246 128.18C2.53995 119.565 1.32328 110.838 2.15474 102.131C2.89158 94.3974 5.25099 86.8455 10.0544 80.6507C12.604 77.3694 15.7065 74.558 19.2222 72.3429C20.1388 71.7645 20.9825 73.2168 20.0699 73.793C13.9865 77.6374 9.28119 83.3145 6.63228 90.0055C3.70679 97.4461 3.23704 105.557 3.74095 113.462C4.04554 118.241 4.69278 122.99 5.34282 127.733C5.39415 127.947 5.36211 128.173 5.25318 128.365C5.14425 128.557 4.96654 128.7 4.75603 128.766C4.54128 128.824 4.31238 128.795 4.11899 128.685C3.9256 128.575 3.78334 128.393 3.72304 128.179L3.72246 128.18Z" fill="#F2F2F2"/>
<path d="M12.2341 114.356C13.4557 116.214 15.1352 117.725 17.1107 118.745C19.0861 119.765 21.291 120.259 23.5127 120.179C29.2237 119.908 33.9829 115.924 38.2667 112.14L50.9401 100.951L42.5528 100.549C36.521 100.26 30.3335 99.9893 24.5883 101.852C18.8432 103.714 13.5448 108.189 12.4945 114.135" fill="#E6E6E6"/>
<path d="M0.379888 133.133C6.07296 123.059 12.6759 111.864 24.4752 108.286C27.7558 107.294 31.1956 106.939 34.6095 107.239C35.6856 107.332 35.4168 108.991 34.3429 108.898C28.6203 108.423 22.9087 109.934 18.1696 113.177C13.7146 116.409 9.93771 120.485 7.05333 125.173C5.21233 127.976 3.56348 130.899 1.91456 133.817C1.38769 134.75 -0.153142 134.076 0.379888 133.133Z" fill="#F2F2F2"/>
<path d="M136.58 115.691C160.365 115.691 179.647 96.4088 179.647 72.6234C179.647 48.838 160.365 29.5561 136.58 29.5561C112.795 29.5561 93.5126 48.838 93.5126 72.6234C93.5126 96.4088 112.795 115.691 136.58 115.691Z" fill="#2F2E41"/>
<path d="M130.038 106.423H116.954V129.865H130.038V106.423Z" fill="#2F2E41"/>
<path d="M156.206 106.423H143.122V129.865H156.206V106.423Z" fill="#2F2E41"/>
<path d="M127.857 134.226C133.879 134.226 138.761 132.396 138.761 130.137C138.761 127.879 133.879 126.049 127.857 126.049C121.836 126.049 116.954 127.879 116.954 130.137C116.954 132.396 121.836 134.226 127.857 134.226Z" fill="#2F2E41"/>
<path d="M154.025 133.681C160.047 133.681 164.928 131.85 164.928 129.592C164.928 127.334 160.047 125.504 154.025 125.504C148.003 125.504 143.122 127.334 143.122 129.592C143.122 131.85 148.003 133.681 154.025 133.681Z" fill="#2F2E41"/>
<path d="M182.989 53.8038C192.316 44.4696 197.502 34.5292 194.572 31.6012C191.641 28.6731 181.705 33.8664 172.378 43.2005C163.051 52.5347 157.865 62.4752 160.796 65.4032C163.726 68.3312 173.662 63.138 182.989 53.8038Z" fill="#2F2E41"/>
<path d="M101.866 68.4033C104.797 65.4753 99.611 55.5348 90.284 46.2006C80.957 36.8665 71.0206 31.6732 68.0903 34.6013C65.16 37.5293 70.3456 47.4697 79.6725 56.8039C88.9995 66.1381 98.936 71.3313 101.866 68.4033Z" fill="#2F2E41"/>
<path d="M134.768 81.2394C142.897 81.2394 149.487 74.6494 149.487 66.5202C149.487 58.391 142.897 51.801 134.768 51.801C126.639 51.801 120.049 58.391 120.049 66.5202C120.049 74.6494 126.639 81.2394 134.768 81.2394Z" fill="white"/>
<path d="M134.768 71.4266C137.478 71.4266 139.674 69.2299 139.674 66.5202C139.674 63.8105 137.478 61.6138 134.768 61.6138C132.058 61.6138 129.862 63.8105 129.862 66.5202C129.862 69.2299 132.058 71.4266 134.768 71.4266Z" fill="#3F3D56"/>
<path d="M146.452 93.7427C146.907 96.2404 146.351 98.8165 144.906 100.904C143.462 102.992 141.247 104.42 138.749 104.875C136.251 105.329 133.675 104.773 131.588 103.329C129.5 101.884 128.072 99.6693 127.617 97.1716L127.614 97.1531C126.672 91.9509 130.694 90.1101 135.896 89.1683C141.098 88.2266 145.511 88.5406 146.452 93.7427Z" fill="white"/>
<path d="M178.81 117.823C177.841 117.825 176.911 118.21 176.226 118.896C175.54 119.581 175.155 120.51 175.154 121.48V129.117C175.155 130.087 175.54 131.016 176.226 131.701C176.911 132.387 177.841 132.772 178.81 132.773H237.64C238.609 132.772 239.539 132.387 240.224 131.701C240.91 131.016 241.295 130.087 241.296 129.117V121.48C241.295 120.51 240.91 119.581 240.224 118.896C239.539 118.21 238.609 117.825 237.64 117.823H178.81Z" fill="#E5E5E5"/>
<path d="M212.642 112.737C212.278 112.527 211.845 112.47 211.439 112.579C211.033 112.688 210.686 112.953 210.476 113.318L208.29 117.104L206.147 112.87C205.958 112.495 205.626 112.21 205.227 112.079C204.827 111.948 204.392 111.981 204.017 112.171C203.642 112.361 203.357 112.692 203.226 113.092C203.095 113.491 203.128 113.927 203.318 114.302L204.985 117.597H204.374V133H212.529V117.597H211.667L213.222 114.903C213.433 114.539 213.49 114.106 213.381 113.7C213.272 113.294 213.006 112.947 212.642 112.737Z" fill="#6C63FF"/>
<path d="M135.471 44.375C127.819 44.3672 120.212 43.205 112.906 40.9277C112.398 40.764 111.956 40.4439 111.641 40.0133C111.326 39.5827 111.156 39.0636 111.154 38.5303V21C111.155 20.3372 111.418 19.7018 111.887 19.2331C112.356 18.7644 112.991 18.5008 113.654 18.5H157.654C158.317 18.5008 158.952 18.7644 159.421 19.2331C159.889 19.7018 160.153 20.3372 160.154 21V38.52C160.154 39.0579 159.981 39.5816 159.661 40.0137C159.341 40.4458 158.89 40.7633 158.375 40.9194C150.951 43.1877 143.234 44.3521 135.471 44.375Z" fill="#6C63FF"/>
<path opacity="0.2" d="M159.654 21V23.93L135.844 32.28C135.399 32.4335 134.914 32.4265 134.474 32.26L111.654 23.69V21C111.655 20.47 111.867 19.9622 112.241 19.5875C112.616 19.2128 113.124 19.0015 113.654 19H157.654C158.184 19.0015 158.692 19.2128 159.066 19.5875C159.441 19.9622 159.652 20.47 159.654 21Z" fill="black"/>
<path d="M135.177 28.8916C134.877 28.8918 134.58 28.838 134.299 28.7329L100.198 15.9282C99.7156 15.7471 99.3011 15.4216 99.011 14.996C98.7209 14.5704 98.5693 14.0657 98.5769 13.5507C98.5845 13.0357 98.751 12.5357 99.0535 12.1189C99.3561 11.7021 99.78 11.3889 100.267 11.2222L132.353 0.245602C132.871 0.0700369 133.433 0.0676405 133.952 0.238767L169.762 12.1758C170.257 12.3407 170.688 12.6561 170.994 13.0779C171.301 13.4997 171.468 14.0068 171.472 14.5283C171.476 15.0497 171.317 15.5593 171.017 15.9858C170.717 16.4123 170.291 16.7343 169.799 16.9068L136.004 28.7515C135.738 28.8445 135.459 28.8918 135.177 28.8916Z" fill="#6C63FF"/>
<path d="M104.154 28H103.154V13.5H133.654V14.5H104.154V28Z" fill="#3F3D56"/>
<path d="M103.654 31C104.758 31 105.654 30.1046 105.654 29C105.654 27.8954 104.758 27 103.654 27C102.549 27 101.654 27.8954 101.654 29C101.654 30.1046 102.549 31 103.654 31Z" fill="#3F3D56"/>
</svg>
