<svg width="111" height="25" viewBox="0 0 111 25" fill="none" xmlns="http://www.w3.org/2000/svg">
<path d="M68.8074 23.1225C68.0647 23.122 67.3526 22.8267 66.8276 22.3016C66.3026 21.7765 66.0077 21.0645 66.0077 20.3221C66.0077 19.5797 66.3026 18.8677 66.8276 18.3426C67.3526 17.8175 68.0647 17.5222 68.8074 17.5217H110.422C110.213 17.1376 109.904 16.817 109.528 16.5935C109.152 16.37 108.722 16.2519 108.285 16.2516H25.5655C24.4863 16.2528 23.4517 16.6822 22.6891 17.4455C21.9265 18.2087 21.4982 19.2434 21.4983 20.3221C21.4988 21.4006 21.9274 22.4349 22.6899 23.198C23.4523 23.9611 24.4865 24.3908 25.5655 24.3926H108.285C108.722 24.3923 109.152 24.2742 109.528 24.0507C109.904 23.8272 110.213 23.5066 110.422 23.1225L68.8074 23.1225Z" fill="#CCCCCC"/>
<path d="M110.478 19.0648H70.9115C70.8509 19.0647 70.7929 19.0405 70.7501 18.9977C70.7074 18.9548 70.6833 18.8967 70.6833 18.8362C70.6833 18.7757 70.7074 18.7176 70.7501 18.6748C70.7929 18.6319 70.8509 18.6078 70.9115 18.6076H110.478C110.538 18.6078 110.596 18.6319 110.639 18.6748C110.682 18.7176 110.706 18.7757 110.706 18.8362C110.706 18.8967 110.682 18.9548 110.639 18.9977C110.596 19.0405 110.538 19.0647 110.478 19.0648Z" fill="#CCCCCC"/>
<path d="M110.478 20.5507H70.9116C70.8509 20.5507 70.7927 20.5266 70.7498 20.4838C70.707 20.4409 70.6829 20.3827 70.6829 20.3221C70.6829 20.2615 70.707 20.2033 70.7498 20.1605C70.7927 20.1176 70.8509 20.0935 70.9116 20.0935H110.478C110.538 20.0935 110.596 20.1176 110.639 20.1605C110.682 20.2033 110.706 20.2615 110.706 20.3221C110.706 20.3827 110.682 20.4409 110.639 20.4838C110.596 20.5266 110.538 20.5507 110.478 20.5507Z" fill="#CCCCCC"/>
<path d="M110.478 22.0367H70.9115C70.8509 22.0365 70.7929 22.0124 70.7501 21.9695C70.7074 21.9267 70.6833 21.8686 70.6833 21.8081C70.6833 21.7475 70.7074 21.6895 70.7501 21.6466C70.7929 21.6038 70.8509 21.5796 70.9115 21.5795H110.478C110.538 21.5796 110.596 21.6038 110.639 21.6466C110.682 21.6895 110.706 21.7475 110.706 21.8081C110.706 21.8686 110.682 21.9267 110.639 21.9695C110.596 22.0124 110.538 22.0365 110.478 22.0367Z" fill="#CCCCCC"/>
<path d="M58.0581 15.2356C57.3154 15.2351 56.6033 14.9399 56.0783 14.4147C55.5533 13.8896 55.2584 13.1776 55.2584 12.4352C55.2584 11.6928 55.5533 10.9808 56.0783 10.4557C56.6033 9.93058 57.3154 9.63531 58.0581 9.6348H99.673C99.4637 9.25074 99.1548 8.93011 98.7787 8.70662C98.4026 8.48312 97.9732 8.36501 97.5356 8.36469H14.8163C13.7371 8.36591 12.7025 8.79531 11.9399 9.55856C11.1772 10.3218 10.7489 11.3565 10.749 12.4352C10.7496 13.5137 11.1781 14.548 11.9406 15.3111C12.7031 16.0742 13.7373 16.5039 14.8163 16.5057H97.5356C97.9732 16.5054 98.4026 16.3873 98.7787 16.1638C99.1548 15.9403 99.4637 15.6197 99.673 15.2356L58.0581 15.2356Z" fill="#6C63FF"/>
<path d="M99.7283 11.1779H60.1622C60.1017 11.1778 60.0437 11.1536 60.0009 11.1108C59.9581 11.0679 59.9341 11.0098 59.9341 10.9493C59.9341 10.8888 59.9581 10.8307 60.0009 10.7878C60.0437 10.745 60.1017 10.7208 60.1622 10.7207H99.7283C99.7889 10.7207 99.8471 10.7448 99.89 10.7877C99.9329 10.8305 99.957 10.8887 99.957 10.9493C99.957 11.0099 99.9329 11.0681 99.89 11.111C99.8471 11.1538 99.7889 11.1779 99.7283 11.1779Z" fill="#CCCCCC"/>
<path d="M99.7284 12.6639H60.1623C60.1016 12.6639 60.0435 12.6398 60.0006 12.5969C59.9577 12.554 59.9336 12.4959 59.9336 12.4353C59.9336 12.3746 59.9577 12.3165 60.0006 12.2736C60.0435 12.2307 60.1016 12.2067 60.1623 12.2067H99.7284C99.789 12.2067 99.8472 12.2307 99.8901 12.2736C99.933 12.3165 99.9571 12.3746 99.9571 12.4353C99.9571 12.4959 99.933 12.554 99.8901 12.5969C99.8472 12.6398 99.789 12.6639 99.7284 12.6639Z" fill="#CCCCCC"/>
<path d="M99.7283 14.1498H60.1622C60.1017 14.1496 60.0437 14.1255 60.0009 14.0826C59.9581 14.0398 59.9341 13.9817 59.9341 13.9212C59.9341 13.8606 59.9581 13.8026 60.0009 13.7597C60.0437 13.7169 60.1017 13.6927 60.1622 13.6926H99.7283C99.7584 13.6925 99.7882 13.6984 99.816 13.7098C99.8438 13.7213 99.8691 13.7381 99.8904 13.7593C99.9117 13.7806 99.9286 13.8058 99.9401 13.8336C99.9516 13.8613 99.9576 13.8911 99.9576 13.9212C99.9576 13.9512 99.9516 13.981 99.9401 14.0088C99.9286 14.0366 99.9117 14.0618 99.8904 14.083C99.8691 14.1043 99.8438 14.1211 99.816 14.1325C99.7882 14.144 99.7584 14.1498 99.7283 14.1498Z" fill="#CCCCCC"/>
<path d="M47.3091 7.08563C46.5664 7.08512 45.8543 6.78984 45.3293 6.26472C44.8043 5.73959 44.5094 5.02759 44.5094 4.2852C44.5094 3.54282 44.8043 2.83081 45.3293 2.30568C45.8543 1.78056 46.5664 1.48529 47.3091 1.48478H88.924C88.7146 1.10072 88.4057 0.7801 88.0296 0.556606C87.6535 0.333112 87.2241 0.214994 86.7866 0.214661H4.06723C2.98803 0.215871 1.95345 0.645281 1.19081 1.40854C0.428173 2.17179 -0.000134274 3.20645 3.15766e-08 4.28519C0.000546035 5.36371 0.429071 6.39798 1.19156 7.16109C1.95405 7.9242 2.98824 8.35383 4.06723 8.35572H86.7866C87.2241 8.3554 87.6535 8.23728 88.0296 8.01379C88.4057 7.79029 88.7147 7.46968 88.924 7.08562L47.3091 7.08563Z" fill="#CCCCCC"/>
<path d="M88.9793 3.02783H49.4132C49.3527 3.02769 49.2946 3.00354 49.2518 2.96068C49.2091 2.91783 49.1851 2.85976 49.1851 2.79923C49.1851 2.73869 49.2091 2.68062 49.2518 2.63777C49.2946 2.59491 49.3527 2.57076 49.4132 2.57062H88.9793C89.0399 2.57062 89.0981 2.5947 89.141 2.63758C89.1839 2.68045 89.208 2.7386 89.208 2.79923C89.208 2.85986 89.1839 2.91801 89.141 2.96088C89.0981 3.00375 89.0399 3.02783 88.9793 3.02783Z" fill="#CCCCCC"/>
<path d="M88.9793 4.51379H49.4133C49.3832 4.51379 49.3535 4.50788 49.3258 4.49639C49.298 4.48491 49.2728 4.46806 49.2516 4.44684C49.2303 4.42561 49.2135 4.40041 49.202 4.37267C49.1905 4.34493 49.1846 4.31521 49.1846 4.28519C49.1846 4.25517 49.1905 4.22543 49.202 4.1977C49.2135 4.16996 49.2303 4.14477 49.2516 4.12354C49.2728 4.10231 49.298 4.08547 49.3258 4.07398C49.3535 4.06249 49.3832 4.05658 49.4133 4.05658H88.9793C89.0094 4.05658 89.0391 4.06249 89.0668 4.07398C89.0946 4.08547 89.1198 4.10231 89.141 4.12354C89.1623 4.14477 89.1791 4.16996 89.1906 4.1977C89.2021 4.22543 89.208 4.25517 89.208 4.28519C89.208 4.31521 89.2021 4.34493 89.1906 4.37267C89.1791 4.40041 89.1623 4.42561 89.141 4.44684C89.1198 4.46806 89.0946 4.48491 89.0668 4.49639C89.0391 4.50788 89.0094 4.51379 88.9793 4.51379Z" fill="#CCCCCC"/>
<path d="M88.9793 5.99975H49.4133C49.3526 5.99975 49.2944 5.97566 49.2516 5.93279C49.2087 5.88992 49.1846 5.83177 49.1846 5.77114C49.1846 5.71051 49.2087 5.65237 49.2516 5.6095C49.2944 5.56662 49.3526 5.54254 49.4133 5.54254H88.9793C89.0094 5.54254 89.0391 5.54845 89.0668 5.55994C89.0946 5.57143 89.1198 5.58827 89.141 5.6095C89.1623 5.63072 89.1791 5.65593 89.1906 5.68366C89.2021 5.7114 89.208 5.74112 89.208 5.77114C89.208 5.80116 89.2021 5.8309 89.1906 5.85863C89.1791 5.88637 89.1623 5.91156 89.141 5.93279C89.1198 5.95402 89.0946 5.97086 89.0668 5.98235C89.0391 5.99384 89.0094 5.99975 88.9793 5.99975Z" fill="#CCCCCC"/>
</svg>
