<?xml version="1.0" standalone="no"?>
<!DOCTYPE svg PUBLIC "-//W3C//DTD SVG 20010904//EN"
 "http://www.w3.org/TR/2001/REC-SVG-20010904/DTD/svg10.dtd">
<svg version="1.0" xmlns="http://www.w3.org/2000/svg"
 width="768.000000pt" height="768.000000pt" viewBox="0 0 768.000000 768.000000"
 preserveAspectRatio="xMidYMid meet">
<metadata>
Created by potrace 1.14, written by Peter Selinger 2001-2017
</metadata>
<g transform="translate(0.000000,768.000000) scale(0.100000,-0.100000)"
fill="#000000" stroke="none">
<path d="M3540 6698 c0 -5 -18 -8 -40 -8 -22 0 -40 -4 -40 -9 0 -4 -12 -8 -27
-8 -16 0 -48 -6 -73 -13 -25 -8 -53 -15 -63 -16 -10 -1 -23 -6 -29 -12 -6 -6
-17 -8 -24 -5 -8 3 -14 1 -14 -5 0 -10 -56 -28 -72 -24 -5 1 -8 -2 -8 -8 0 -6
-9 -10 -20 -10 -11 0 -20 -5 -20 -10 0 -6 -6 -10 -12 -9 -7 2 -30 -5 -52 -14
-21 -9 -44 -17 -52 -17 -7 0 -20 -7 -29 -17 -16 -15 -15 -17 6 -29 17 -9 26
-9 31 -1 8 13 230 16 261 3 38 -15 51 -18 90 -20 20 0 37 -4 37 -8 0 -5 9 -8
20 -8 11 0 20 -4 20 -10 0 -5 15 -10 34 -10 19 0 37 -4 40 -9 4 -5 14 -8 24
-7 18 3 32 -21 25 -41 -3 -7 -12 -13 -20 -13 -7 0 -25 -12 -38 -26 -14 -15
-25 -24 -25 -21 0 3 -21 -15 -47 -39 -25 -24 -52 -44 -59 -44 -7 0 -16 -9 -19
-20 -4 -11 -11 -18 -16 -15 -5 4 -9 1 -9 -4 0 -6 -7 -11 -15 -11 -8 0 -15 -3
-15 -7 0 -5 -24 -24 -53 -43 -28 -19 -54 -38 -55 -43 -2 -4 -8 -5 -13 -1 -5 3
-16 -2 -25 -10 -8 -9 -22 -16 -30 -16 -8 0 -12 -4 -9 -10 3 -5 1 -10 -6 -10
-16 0 -142 -95 -197 -149 -149 -145 -270 -386 -301 -596 -7 -50 -6 -353 1
-380 13 -44 30 -111 33 -125 15 -69 122 -276 186 -359 17 -21 19 -21 19 -5 -1
167 11 387 24 427 8 26 13 47 11 47 -16 0 112 281 145 318 19 22 55 77 50 77
-13 0 185 183 230 213 30 20 57 39 60 43 12 17 264 139 286 139 13 0 24 5 24
10 0 6 6 10 14 10 8 0 22 7 30 16 9 8 16 13 16 10 0 -3 19 4 43 14 25 11 55
17 71 14 15 -2 25 -1 22 4 -3 5 1 9 9 9 13 0 12 -4 -2 -19 -9 -10 -18 -16 -21
-14 -2 3 -14 -6 -27 -20 -12 -13 -27 -24 -33 -24 -19 0 -132 -105 -177 -165
-17 -22 -36 -47 -44 -56 -31 -38 -103 -185 -135 -279 -20 -55 -34 -100 -32
-100 2 0 -2 -21 -10 -47 -8 -26 -16 -76 -19 -112 -7 -92 -14 -120 -40 -161
-30 -47 -90 -169 -121 -245 -92 -223 -109 -528 -42 -745 19 -61 94 -229 107
-240 3 -3 22 -27 41 -55 62 -89 122 -156 321 -362 49 -51 89 -97 89 -103 0 -6
4 -8 10 -5 6 3 10 1 10 -6 0 -6 15 -28 33 -49 51 -59 67 -80 67 -89 0 -4 9
-16 20 -26 11 -10 22 -27 26 -39 3 -11 12 -28 19 -36 28 -33 98 -210 119 -300
14 -59 37 -197 42 -255 3 -38 7 -72 9 -75 1 -3 -1 -14 -5 -24 -6 -17 -11 -13
-40 30 -39 57 -129 154 -142 154 -5 0 -19 11 -31 24 -12 13 -46 36 -75 51 -29
15 -55 31 -58 36 -3 5 -14 9 -25 9 -10 0 -19 4 -19 9 0 8 -56 25 -72 22 -5 0
-8 3 -8 8 0 8 -53 25 -77 24 -7 0 -13 3 -13 7 0 7 -38 15 -122 24 -20 2 -42 7
-48 11 -7 4 -47 9 -89 11 -139 6 -187 10 -199 18 -7 4 -43 8 -80 8 -37 0 -72
5 -79 10 -6 5 -20 8 -30 7 -10 -2 -34 1 -53 6 -19 5 -39 8 -44 6 -6 -1 -19 2
-30 7 -27 13 -58 25 -71 27 -11 1 -27 7 -90 33 -54 22 -186 102 -206 124 -9
10 -19 15 -23 11 -3 -3 -6 -2 -6 4 0 16 -48 34 -56 21 -4 -7 -2 -14 4 -16 7
-2 10 -8 6 -13 -3 -5 -1 -9 4 -9 5 0 41 -31 80 -70 40 -38 72 -67 72 -65 0 3
48 -45 108 -106 133 -138 144 -149 152 -149 3 0 14 -14 24 -31 10 -17 20 -28
23 -25 3 2 19 -10 36 -27 18 -18 55 -50 82 -72 28 -22 54 -46 58 -53 4 -6 12
-12 17 -12 9 0 43 -26 76 -58 8 -7 14 -11 14 -7 0 3 6 1 13 -5 6 -6 39 -31 72
-55 33 -25 65 -48 70 -53 106 -81 306 -272 299 -284 -3 -4 -1 -8 5 -8 10 0 85
-111 119 -178 60 -116 117 -289 130 -392 13 -107 5 -311 -14 -341 -3 -5 1 -9
8 -9 7 0 31 34 53 76 22 42 45 82 51 88 6 7 37 61 69 121 32 61 63 116 68 124
6 7 12 20 13 28 2 8 10 23 18 32 9 10 16 21 16 25 0 4 11 31 24 59 50 107 106
264 106 298 0 21 45 48 72 44 10 -2 20 1 24 6 3 5 18 9 33 9 15 0 31 3 35 7 4
4 17 8 29 8 12 1 30 5 40 8 9 4 25 10 35 14 9 3 24 7 32 8 41 6 80 18 80 27 0
5 6 8 13 6 6 -1 34 8 61 20 27 12 55 22 62 22 8 0 14 4 14 9 0 5 11 12 25 15
14 4 25 11 25 16 0 6 7 10 15 10 8 0 15 5 15 12 0 6 3 8 6 5 4 -3 27 8 53 26
59 41 71 53 64 61 -4 3 0 6 7 6 12 0 100 86 144 140 69 85 159 263 172 340 3
14 10 41 16 60 6 19 11 87 11 150 -1 116 -27 248 -67 342 -9 21 -15 39 -14 40
2 2 -7 17 -20 35 -12 17 -22 35 -22 40 0 17 -96 147 -147 198 -65 66 -123 117
-123 109 0 -4 -8 3 -19 14 -10 12 -21 19 -25 15 -3 -3 -6 -2 -6 4 0 5 -18 18
-40 29 -22 10 -40 22 -40 26 0 3 -13 9 -30 13 -16 4 -30 11 -30 16 0 5 -5 9
-11 9 -15 0 -83 32 -90 43 -3 4 -10 7 -15 6 -5 -1 -22 3 -39 10 -16 7 -34 14
-40 15 -10 3 -32 11 -62 23 -10 4 -22 7 -28 8 -5 1 -28 9 -49 19 -22 9 -51 19
-65 23 -14 3 -41 14 -59 25 -17 10 -33 18 -35 18 -26 5 -47 14 -47 22 0 6 -7
8 -15 4 -8 -3 -15 -1 -15 4 0 6 -4 10 -10 10 -8 0 -108 58 -194 113 -78 50
-306 285 -306 316 0 6 -4 11 -9 11 -15 0 -118 212 -151 310 -38 116 -56 242
-41 297 14 48 49 91 178 218 124 121 135 131 162 140 12 3 21 10 21 14 0 4 23
18 50 31 28 13 50 27 50 32 0 5 4 7 9 3 5 -3 12 -1 16 5 3 5 15 10 26 10 10 0
19 4 19 9 0 6 21 13 48 17 26 3 52 10 57 14 10 8 84 23 120 24 11 1 25 4 30 7
15 10 154 9 160 -1 3 -5 26 -8 51 -8 25 0 51 -5 58 -11 7 -6 16 -8 19 -4 4 3
7 1 7 -6 0 -7 10 -11 24 -9 13 1 31 -3 40 -11 9 -7 16 -11 16 -7 0 3 17 -4 38
-15 20 -12 55 -31 77 -42 76 -42 178 -138 227 -217 82 -129 99 -245 52 -355
-40 -95 -41 -105 0 -60 19 22 36 44 36 48 0 7 37 65 50 77 13 12 81 162 103
225 44 126 61 229 61 380 1 194 -14 280 -75 450 -55 154 -163 335 -261 438
-26 28 -48 54 -48 59 0 4 -3 8 -8 8 -4 0 -25 17 -48 38 -23 20 -53 46 -69 57
-15 11 -32 25 -39 30 -17 16 -112 75 -119 75 -4 0 -16 8 -27 18 -11 9 -24 17
-28 18 -4 0 -20 7 -37 14 -16 7 -33 13 -37 12 -5 -1 -8 3 -8 8 0 6 -7 10 -15
10 -8 0 -15 5 -15 11 0 5 -4 8 -10 4 -5 -3 -17 -1 -27 4 -18 9 -49 20 -58 21
-3 0 -19 7 -35 15 -16 8 -32 15 -35 15 -19 1 -65 14 -65 19 0 3 -20 5 -45 3
-28 -3 -45 0 -45 7 0 6 -15 11 -33 11 -19 0 -37 3 -41 7 -9 10 -426 10 -426 1z"/>
</g>
</svg>
