<svg width="192" height="146" viewBox="0 0 192 146" fill="none" xmlns="http://www.w3.org/2000/svg">
<path d="M58 33C68.4934 33 77 25.6127 77 16.5C77 7.3873 68.4934 0 58 0C47.5066 0 39 7.3873 39 16.5C39 25.6127 47.5066 33 58 33Z" fill="#2F2E41"/>
<path d="M40.4924 124L40 116.36L72.2728 111L73 122.278L40.4924 124Z" fill="#FFB8B8"/>
<path d="M41.618 110.586L42.5844 125.157L32.1748 125.693L30.5999 101.948C31.9669 101.878 33.3362 102.045 34.6298 102.441C35.9233 102.837 37.1157 103.454 38.1388 104.256C39.162 105.058 39.9958 106.03 40.5928 107.116C41.1897 108.202 41.5381 109.381 41.618 110.586Z" fill="#2F2E41"/>
<path d="M54 123.245L48.6502 129L21 113.494L28.8952 105L54 123.245Z" fill="#FFB8B8"/>
<path d="M43.0623 132.245L53.5782 120.969L61.6338 126.804L44.4968 145.179C43.4389 144.413 42.5626 143.471 41.918 142.406C41.2734 141.341 40.8731 140.175 40.7399 138.974C40.6067 137.773 40.7432 136.56 41.1417 135.406C41.5402 134.251 42.1928 133.177 43.0623 132.245Z" fill="#2F2E41"/>
<path d="M38.7661 95.9624L35.0607 111.488C34.9753 111.845 34.9801 112.215 35.0746 112.571C35.1691 112.926 35.351 113.259 35.6072 113.545C35.8634 113.831 36.1877 114.062 36.5566 114.224C36.9256 114.385 37.3301 114.472 37.7412 114.477L74.1689 115C74.5795 115.006 74.9865 114.931 75.3608 114.78C75.735 114.63 76.0673 114.408 76.3338 114.131C76.6003 113.853 76.7944 113.526 76.9022 113.174C77.0101 112.822 77.029 112.453 76.9576 112.093L73.7713 96.0459C73.6574 95.4727 73.32 94.9534 72.8183 94.5792C72.3165 94.2051 71.6824 94 71.0275 94H41.4916C40.8531 94 40.2339 94.1949 39.7378 94.5522C39.2416 94.9094 38.8986 95.4073 38.7661 95.9624Z" fill="#2F2E41"/>
<path d="M44.3529 102.122C44.3529 102.122 8.8984 82.7049 1.94652 93.0202C-1.52941 98.1779 0.208556 103.184 2.81551 106.9C5.23478 110.284 8.70754 112.997 12.8279 114.722L41.5722 127L52 117.291L45.0481 111.83L44.3529 102.122Z" fill="#2F2E41"/>
<path d="M62.7822 99.0046C62.7822 99.0046 108.898 87.6103 99.8149 109.2C90.7314 130.789 56.4937 122.393 56.4937 122.393L53 113.397L64.8784 106.201L62.7822 99.0046Z" fill="#2F2E41"/>
<path d="M58 36C67.3888 36 75 29.0604 75 20.5C75 11.9396 67.3888 5 58 5C48.6112 5 41 11.9396 41 20.5C41 29.0604 48.6112 36 58 36Z" fill="#FFB8B8"/>
<path d="M59.2909 101C52.1641 100.905 45.0738 100.079 38.1622 98.5384L37.958 98.4889L28.3873 59.5572C27.5264 56.1362 28.1118 52.5547 30.033 49.4893C31.9542 46.4239 35.0782 44.0867 38.815 42.9191C50.3579 39.2567 62.9387 39.0345 74.6377 42.2865C78.5633 43.4052 81.8677 45.7916 83.8914 48.9695C85.9151 52.1475 86.5095 55.8834 85.5559 59.4318L74.866 98.4563L74.7155 98.5197C70.273 100.381 64.7177 101 59.2909 101Z" fill="#CCCCCC"/>
<path d="M46.4313 104.65C46.7779 103.8 47.3314 103.028 48.0529 102.388C48.7744 101.747 49.6463 101.254 50.6072 100.943C51.5681 100.632 52.5946 100.51 53.6145 100.587C54.6344 100.664 55.6228 100.937 56.5101 101.387L75.3 87L77 98.3064L58.8962 110.235C57.9401 111.5 56.4912 112.412 54.8242 112.797C53.1572 113.183 51.3878 113.015 49.8514 112.327C48.3149 111.638 47.1181 110.476 46.4878 109.062C45.8575 107.647 45.8374 106.077 46.4313 104.65Z" fill="#FFB8B8"/>
<path d="M64.4456 107C64.1381 107 63.8324 106.96 63.5378 106.883C63.0597 106.761 62.6219 106.541 62.261 106.24C61.9001 105.939 61.6267 105.567 61.4636 105.155L59.1828 99.4906C58.9693 98.9672 58.9421 98.3993 59.105 97.862C59.2678 97.3247 59.6129 96.8434 60.0946 96.4819L85.8401 82.934L75.6914 43.2487L75.9495 43.1942C76.0545 43.1714 86.4527 41.097 90.7137 51.0566C93.6976 58.0319 104.74 73.1986 103.961 83.4476C103.813 85.4977 102.881 87.4443 101.315 88.973C99.7498 90.5017 97.6423 91.5232 95.3329 91.8728L66.3529 106.426C65.8071 106.797 65.1362 106.999 64.4456 107Z" fill="#CCCCCC"/>
<path d="M67.5548 102.65C67.197 101.8 66.6257 101.028 65.8809 100.388C65.1361 99.7472 64.2361 99.2541 63.2442 98.9431C62.2523 98.632 61.1926 98.5105 60.1398 98.5873C59.0871 98.6641 58.0668 98.9371 57.1509 99.3873L37.7549 85L36 96.3065L54.6878 108.235C55.6748 109.5 57.1703 110.412 58.8911 110.797C60.6119 111.183 62.4384 111.015 64.0244 110.327C65.6104 109.638 66.8458 108.476 67.4965 107.062C68.1471 105.647 68.1679 104.077 67.5548 102.65Z" fill="#FFB8B8"/>
<path d="M50.5654 107C49.8761 106.999 49.2066 106.797 48.6619 106.426L17.6437 93.1004C15.339 92.7508 13.2356 91.7292 11.6733 90.2005C10.111 88.6718 9.18087 86.7253 9.03317 84.6752C8.25573 74.4262 21.3721 58.0321 24.35 51.0568C28.6022 41.0973 38.9796 43.1711 39.0846 43.1945L39.3422 43.249L27.1174 84.1616L54.9076 96.4819C55.3883 96.8435 55.7328 97.3248 55.8953 97.862C56.0578 98.3993 56.0307 98.9672 55.8176 99.4907L53.5414 105.155C53.3786 105.567 53.1057 105.939 52.7455 106.24C52.3853 106.541 51.9484 106.761 51.4713 106.883C51.1773 106.96 50.8722 107 50.5654 107Z" fill="#CCCCCC"/>
<path d="M88.1068 114H25.8932C24.5959 113.999 23.3522 113.542 22.4349 112.729C21.5175 111.917 21.0015 110.816 21 109.667V79.3333C21.0015 78.1845 21.5175 77.0831 22.4349 76.2707C23.3522 75.4583 24.5959 75.0013 25.8932 75H88.1068C89.4041 75.0013 90.6478 75.4583 91.5652 76.2707C92.4825 77.0831 92.9985 78.1845 93 79.3333V109.667C92.9985 110.816 92.4824 111.917 91.5651 112.729C90.6478 113.542 89.4041 113.999 88.1068 114Z" fill="#2F2E41"/>
<path d="M57 98C59.2091 98 61 96.2091 61 94C61 91.7909 59.2091 90 57 90C54.7909 90 53 91.7909 53 94C53 96.2091 54.7909 98 57 98Z" fill="white"/>
<path d="M41.2946 20C40.3061 17.6784 41.9279 14.9117 44.3338 13.7871C46.7398 12.6625 49.6431 12.8764 52.2166 13.6176C54.3793 14.2404 56.4063 15.2058 58.5162 15.9682C60.5963 16.8217 62.8686 17.1964 65.1391 17.0603C67.3897 16.8249 69.6297 15.6564 70.5506 13.7404C71.5052 11.7544 70.8559 9.33072 69.3859 7.63578C67.8218 5.99718 65.7974 4.79245 63.538 4.15564C58.5757 2.53691 52.8438 2.48959 48.237 4.84257C43.6302 7.19556 40.4994 12.2056 41.4517 16.9968" fill="#2F2E41"/>
<g clip-path="url(#clip0_0_1)">
<path opacity="0.1" d="M150 117C173.196 117 192 114.978 192 112.484C192 109.99 173.196 107.968 150 107.968C126.804 107.968 108 109.99 108 112.484C108 114.978 126.804 117 150 117Z" fill="#6C63FF"/>
<path d="M149.951 96.5809C149.951 96.5809 136.217 97.1069 136.416 98.8085C136.615 100.51 153.228 102.315 164.287 98.8085C164.284 98.8085 163.344 96.4561 149.951 96.5809Z" fill="#A1C4F5"/>
<path opacity="0.1" d="M139.098 89.2408H139.297C139.297 89.2408 139.231 87.4992 138.965 87.1507H139.098C139.098 87.1507 138.7 85.6414 138.104 85.2349L138.303 85.1768C138.303 85.1768 137.64 84.0741 136.579 83.8418L136.744 83.7543C136.744 83.7543 135.254 83.3191 134.524 83.261L134.657 83.2029C134.185 82.9791 133.68 82.8133 133.156 82.7103C133.386 82.3616 133.532 81.9755 133.587 81.5755L133.521 81.5862C133.521 81.5862 133.744 81.1316 133.663 79.9327C133.663 79.9327 133.49 79.352 133.712 79.0783L133.696 78.9902C133.696 78.9902 133.302 79.2572 132.65 79.2271L132.634 79.139C132.634 79.139 131.647 79.3079 131.467 79.4541L131.456 79.3947C131.456 79.3947 130.625 79.6931 130.441 79.9908L130.392 79.9067C130.392 79.9067 129.854 80.2658 129.776 80.7331C129.771 80.7471 129.767 80.7618 129.763 80.7758L129.705 80.7144L129.685 80.8292V80.8259C129.685 80.8259 129.679 80.8579 129.67 80.9113C129.606 80.6996 129.52 80.4932 129.415 80.2945C129.248 79.9414 129.022 79.627 128.718 79.4094L128.738 79.5923C128.738 79.5923 127.304 78.6277 126.12 78.5823L126.174 78.6884C126.174 78.6884 124.951 78.2766 123.309 78.4722L123.363 78.5783C123.363 78.5783 122.274 78.4321 119.743 79.1657C119.743 79.1657 118.585 79.7445 117.886 79.5095L117.704 79.5803C117.704 79.5803 118.477 80.1043 118.743 81.207L118.56 81.2771C118.56 81.2771 119.425 82.8458 119.829 83.0694L119.707 83.1168C119.707 83.1168 120.77 84.3544 121.5 84.5133L121.348 84.6368C121.348 84.6368 122.464 85.4085 123.54 85.2429L123.429 85.3811C123.429 85.3811 124.993 85.2476 125.686 85.04L125.592 85.1408C126.017 85.1701 126.444 85.1577 126.866 85.1041C126.859 85.1308 126.853 85.1575 126.849 85.1842L126.912 85.1655C126.831 85.3271 126.771 85.4958 126.731 85.6688C125.372 86.6841 123.845 88.3516 123.806 90.742L126.71 87.1033C126.745 87.4284 126.807 87.7509 126.893 88.0686C126.893 88.0686 127.174 88.6159 127.006 88.9177L127.038 89.0024C127.038 89.0024 127.376 88.682 128.026 88.6159L128.058 88.7007C128.058 88.7007 129.003 88.3896 129.15 88.2194L129.172 88.2762C129.384 88.1579 129.583 88.0239 129.768 87.8757C130.118 88.2875 130.603 88.7661 131.147 89.0024V88.8863C131.147 88.8863 132.075 89.6993 133.666 90.1059V89.9971C133.666 89.9971 134.594 90.5197 137.245 90.752C137.245 90.752 138.571 90.6359 139.101 91.0998H139.3C139.3 91.0998 138.837 90.3442 139.098 89.2408Z" fill="#6C63FF"/>
<path opacity="0.1" d="M151.275 87.7388L151.33 87.907C151.33 87.907 153.217 87.373 153.524 87.0512L153.561 87.1634C153.561 87.1634 155.103 86.4111 155.384 85.7949L155.502 85.9471C155.502 85.9471 156.526 85.0834 156.489 84.1228L156.63 84.2389C156.63 84.2389 156.695 82.8592 156.554 82.227L156.654 82.3231C156.768 81.8631 156.811 81.3914 156.779 80.9213C157.223 81.0187 157.685 81.0364 158.136 80.9734L158.108 80.9193C158.108 80.9193 158.667 80.9861 159.955 80.5855C159.955 80.5855 160.543 80.2791 160.903 80.392L160.996 80.3539C160.996 80.3539 160.595 80.0949 160.447 79.5355L160.54 79.4975C160.54 79.4975 160.084 78.7078 159.874 78.5976L159.935 78.5723C159.935 78.5723 159.381 77.9528 159.004 77.8794L159.08 77.8126C159.08 77.8126 158.54 77.4568 158.007 77.5196H157.957L158.009 77.4528L157.877 77.4682V77.4648L157.78 77.4755C157.995 77.3627 158.198 77.2339 158.388 77.0904C158.728 76.8514 159.007 76.5744 159.164 76.2573L158.969 76.324C158.969 76.324 159.632 74.8488 159.356 73.8355L159.256 73.9096C159.256 73.9096 159.37 72.7628 158.703 71.4297L158.601 71.5065C158.601 71.5065 158.461 70.5459 156.962 68.6094C156.962 68.6094 156.01 67.7903 156.075 67.1348L155.947 67.0013C155.947 67.0013 155.586 67.7983 154.454 68.3277L154.326 68.1942C154.326 68.1942 152.849 69.357 152.716 69.7595L152.631 69.6701C152.631 69.6701 151.567 70.907 151.598 71.5699L151.419 71.4731C151.419 71.4731 150.883 72.6279 151.361 73.4917L151.179 73.4363C151.179 73.4363 151.757 74.7206 152.173 75.2493L152.038 75.1972C152.123 75.5649 152.254 75.9232 152.429 76.2653C152.398 76.2653 152.367 76.2693 152.337 76.2733L152.375 76.322C152.176 76.2977 151.974 76.2926 151.774 76.3067C150.29 75.4389 148.046 74.6105 145.417 75.234L150.196 76.6852C149.85 76.8051 149.514 76.9456 149.191 77.1057C149.191 77.1057 148.67 77.4935 148.293 77.4348L148.209 77.4862C148.209 77.4862 148.653 77.6831 148.904 78.2125L148.82 78.2639C148.82 78.2639 149.421 78.9761 149.647 79.0536L149.591 79.0876C149.778 79.2338 149.978 79.3656 150.19 79.4815C149.836 79.8906 149.448 80.4354 149.338 80.9574L149.465 80.9253C149.465 80.9253 148.831 81.9333 148.825 83.3892L148.952 83.3578C148.952 83.3578 148.637 84.2857 149.113 86.59C149.113 86.59 149.605 87.6781 149.244 88.2541L149.298 88.4223C149.298 88.4223 150 87.8189 151.275 87.7388Z" fill="#6C63FF"/>
<path opacity="0.1" d="M166.77 87.861L166.737 87.9431C166.737 87.9431 167.681 88.2101 167.913 88.1567L167.891 88.2114C167.891 88.2114 168.767 88.3002 169.085 88.1213V88.2134C169.085 88.2134 169.787 88.124 170.089 87.7241L170.108 87.8069C170.108 87.8069 170.592 87.2629 170.746 86.9705L170.755 87.0372C170.954 86.879 171.127 86.6975 171.27 86.4979C171.417 86.651 171.598 86.7763 171.802 86.8663L171.808 86.8376C171.808 86.8376 172.015 87.0065 172.671 87.1714C172.671 87.1714 173.011 87.1968 173.12 87.3349L173.17 87.343C173.126 87.1851 173.143 87.0189 173.218 86.8703L173.269 86.8784C173.269 86.8784 173.345 86.4398 173.296 86.3443L173.329 86.3497C173.329 86.3497 173.309 85.9552 173.177 85.829L173.23 85.823C173.23 85.823 173.129 85.54 172.891 85.4292L172.87 85.4165L172.913 85.4031C172.913 85.4031 172.891 85.3918 172.854 85.3751L172.811 85.3544C172.936 85.3637 173.061 85.3637 173.185 85.3544C173.392 85.3501 173.595 85.302 173.776 85.2142L173.675 85.1915C173.675 85.1915 174.434 84.761 174.657 84.2783L174.591 84.283C174.887 83.9447 175.091 83.5512 175.187 83.1328L175.121 83.1369C175.121 83.1369 175.383 82.7103 175.414 81.5395C175.414 81.5395 175.298 80.9627 175.541 80.7124L175.534 80.6249C175.534 80.6249 175.123 80.8572 174.487 80.7825L174.48 80.6957C174.48 80.6957 173.5 80.7851 173.314 80.9187L173.309 80.8606C173.309 80.8606 172.467 81.0915 172.26 81.3686L172.219 81.2838C172.219 81.2838 171.618 81.6176 171.526 82.0895L171.471 82.0227C171.471 82.0227 171.28 82.6903 171.275 83.0154L171.237 82.9593C171.15 83.1304 171.085 83.3095 171.043 83.4933C171.03 83.4858 171.016 83.4789 171.002 83.4726V83.502C170.929 83.4414 170.849 83.3879 170.762 83.3425C170.446 82.6082 169.808 81.6983 168.532 81.2791L169.995 83.0921C169.815 83.0525 169.632 83.0237 169.447 83.006C169.447 83.006 169.107 83.0307 168.973 82.9106H168.922C168.996 83.0601 169.01 83.2268 168.964 83.3845H168.909C168.909 83.3845 168.918 83.8277 168.985 83.9185H168.951C168.979 84.0257 169.017 84.1307 169.064 84.2323C168.785 84.3077 168.447 84.4325 168.229 84.6141L168.291 84.6335C167.865 84.835 167.498 85.1192 167.216 85.4645L167.278 85.4839C167.278 85.4839 166.842 85.7803 166.273 86.8396C166.273 86.8396 166.112 87.4084 165.774 87.5499L165.741 87.632C165.741 87.632 166.223 87.5666 166.77 87.861Z" fill="#6C63FF"/>
<path d="M149.829 115.389C158.687 115.389 165.869 114.029 165.869 112.352C165.869 110.675 158.687 109.315 149.829 109.315C140.971 109.315 133.79 110.675 133.79 112.352C133.79 114.029 140.971 115.389 149.829 115.389Z" fill="#A1C4F5"/>
<path opacity="0.1" d="M149.829 115.389C158.687 115.389 165.869 114.029 165.869 112.352C165.869 110.675 158.687 109.315 149.829 109.315C140.971 109.315 133.79 110.675 133.79 112.352C133.79 114.029 140.971 115.389 149.829 115.389Z" fill="black"/>
<path d="M149.829 114.983C158.687 114.983 165.869 113.624 165.869 111.946C165.869 110.269 158.687 108.909 149.829 108.909C140.971 108.909 133.79 110.269 133.79 111.946C133.79 113.624 140.971 114.983 149.829 114.983Z" fill="#A1C4F5"/>
<path opacity="0.1" d="M149.924 114.184C156.451 114.184 161.743 113.182 161.743 111.946C161.743 110.71 156.451 109.708 149.924 109.708C143.397 109.708 138.105 110.71 138.105 111.946C138.105 113.182 143.397 114.184 149.924 114.184Z" fill="black"/>
<path d="M141.748 98.0949C141.748 98.0949 144.102 99.0254 144.137 101.089" stroke="#57B894" stroke-width="6" stroke-miterlimit="10"/>
<path opacity="0.3" d="M141.748 98.0949C141.748 98.0949 144.102 99.0254 144.137 101.089" stroke="#407D3B" stroke-width="6" stroke-miterlimit="10"/>
<path d="M141.17 97.6516C141.17 97.6516 141.896 98.8665 141.517 99.5294L141.485 99.4466C141.485 99.4466 141.075 100.109 140.574 100.33V100.277C140.231 100.549 139.821 100.747 139.377 100.857V100.802C139.377 100.802 138.935 101.051 137.674 101.161C137.674 101.161 137.044 101.105 136.792 101.326H136.697C136.837 101.048 136.868 100.736 136.786 100.441H136.691C136.691 100.441 136.723 99.6122 136.849 99.4466H136.786C136.786 99.4466 136.975 98.7284 137.259 98.5354L137.164 98.5074C137.164 98.5074 137.48 97.9827 137.984 97.8726L137.908 97.8312C137.908 97.8312 138.617 97.6236 138.964 97.5962L138.901 97.5689C138.901 97.5689 140.256 96.8786 141.17 97.6516Z" fill="#57B894"/>
<path opacity="0.3" d="M141.17 97.6516C141.17 97.6516 141.896 98.8665 141.517 99.5294L141.485 99.4466C141.485 99.4466 141.075 100.109 140.574 100.33V100.277C140.231 100.549 139.821 100.747 139.377 100.857V100.802C139.377 100.802 138.935 101.051 137.674 101.161C137.674 101.161 137.044 101.105 136.792 101.326H136.697C136.837 101.048 136.868 100.736 136.786 100.441H136.691C136.691 100.441 136.723 99.6122 136.849 99.4466H136.786C136.786 99.4466 136.975 98.7284 137.259 98.5354L137.164 98.5074C137.164 98.5074 137.48 97.9827 137.984 97.8726L137.908 97.8312C137.908 97.8312 138.617 97.6236 138.964 97.5962L138.901 97.5689C138.901 97.5689 140.256 96.8786 141.17 97.6516Z" fill="#407D3B"/>
<path d="M141.191 97.637C141.191 97.637 141.884 98.8045 141.523 99.4393L141.492 99.3599C141.492 99.3599 141.1 99.9967 140.618 100.208V100.156C140.289 100.416 139.896 100.606 139.471 100.712V100.66C139.471 100.66 139.048 100.899 137.841 101.005C137.841 101.005 137.237 100.951 136.996 101.164H136.906C137.04 100.897 137.072 100.599 136.996 100.314H136.906C136.906 100.314 136.936 99.5187 137.057 99.3599H136.997C136.997 99.3599 137.178 98.6703 137.452 98.4847L137.362 98.458C137.362 98.458 137.666 97.954 138.146 97.8479L138.07 97.8085C138.07 97.8085 138.749 97.6083 139.081 97.5829L139.021 97.5562C139.021 97.5562 140.315 96.8947 141.191 97.637Z" fill="#57B894"/>
<path opacity="0.3" d="M137.539 100.581C138.07 99.8533 138.706 99.1885 139.431 98.6036C138.591 98.3052 137.539 99.3085 137.539 99.3085C138.319 98.3392 139.29 98.5074 139.492 98.5555C139.757 98.3497 140.041 98.1633 140.341 97.9981C139.961 97.6416 138.715 98.1143 138.715 98.1143C139.715 97.6089 140.239 97.8679 140.386 97.9721C140.639 97.8363 140.907 97.7244 141.187 97.6383C141.187 97.6383 140.857 97.8272 140.378 98.1436C140.508 98.3566 140.859 99.1002 140.049 99.9673C140.049 99.9673 140.868 98.8132 140.324 98.1803C140.06 98.3559 139.755 98.5682 139.437 98.8078C139.497 99.0561 139.589 99.8418 138.555 100.477C138.555 100.477 139.67 99.5848 139.383 98.8512C138.737 99.3425 138.041 99.9433 137.539 100.581Z" fill="#407D3B"/>
<path d="M141.176 97.6069C141.176 97.6069 141.075 96.2378 141.726 95.7672L141.717 95.854C141.717 95.854 142.401 95.3947 142.96 95.3727L142.935 95.4234C143.374 95.2978 143.841 95.2627 144.298 95.3206L144.272 95.3707C144.272 95.3707 144.79 95.3039 145.993 95.6504C145.993 95.6504 146.544 95.9254 146.877 95.8133L146.963 95.8473C146.706 96.0504 146.532 96.3223 146.469 96.621L146.555 96.655C146.555 96.655 146.144 97.4006 145.952 97.5074L146.01 97.5295C146.01 97.5295 145.506 98.1182 145.157 98.197L145.233 98.2557C145.233 98.2557 144.702 98.6229 144.191 98.5441L144.244 98.6109C144.244 98.6109 143.499 98.5441 143.17 98.4487L143.215 98.4961C143.215 98.4961 141.655 98.6376 141.176 97.6069Z" fill="#57B894"/>
<path opacity="0.3" d="M141.176 97.6069C141.176 97.6069 141.075 96.2378 141.726 95.7672L141.717 95.854C141.717 95.854 142.401 95.3947 142.96 95.3727L142.935 95.4234C143.374 95.2978 143.841 95.2627 144.298 95.3206L144.272 95.3707C144.272 95.3707 144.79 95.3039 145.993 95.6504C145.993 95.6504 146.544 95.9254 146.877 95.8133L146.963 95.8473C146.706 96.0504 146.532 96.3223 146.469 96.621L146.555 96.655C146.555 96.655 146.144 97.4006 145.952 97.5074L146.01 97.5295C146.01 97.5295 145.506 98.1182 145.157 98.197L145.233 98.2557C145.233 98.2557 144.702 98.6229 144.191 98.5441L144.244 98.6109C144.244 98.6109 143.499 98.5441 143.17 98.4487L143.215 98.4961C143.215 98.4961 141.655 98.6376 141.176 97.6069Z" fill="#407D3B"/>
<path d="M141.152 97.6109C141.152 97.6109 141.056 96.2972 141.684 95.844L141.675 95.9281C141.675 95.9281 142.327 95.4862 142.866 95.4608L142.842 95.5095C143.262 95.3887 143.709 95.3545 144.146 95.4094L144.122 95.4575C144.122 95.4575 144.618 95.3907 145.771 95.7245C145.771 95.7245 146.298 95.9915 146.616 95.8807L146.699 95.9127C146.452 96.1081 146.285 96.3694 146.224 96.6564L146.307 96.6884C146.307 96.6884 145.912 97.4053 145.728 97.5075L145.784 97.5288C145.784 97.5288 145.3 98.0949 144.966 98.1676L145.036 98.2237C145.036 98.2237 144.528 98.5768 144.038 98.5014L144.088 98.5648C144.088 98.5648 143.376 98.5047 143.06 98.4106L143.103 98.456C143.103 98.456 141.608 98.6022 141.152 97.6109Z" fill="#57B894"/>
<path opacity="0.3" d="M145.848 96.2224C145.027 96.699 144.139 97.0804 143.206 97.3572C143.835 97.9293 145.26 97.3886 145.26 97.3886C144.1 97.9961 143.286 97.4954 143.127 97.3793C142.79 97.4728 142.444 97.542 142.094 97.5862C142.277 98.0475 143.634 98.0595 143.634 98.0595C142.486 98.1643 142.128 97.7411 142.039 97.5922C141.745 97.6265 141.448 97.6332 141.153 97.6122C141.153 97.6122 141.542 97.5575 142.125 97.4387C142.104 97.1977 142.125 96.3933 143.264 95.89C143.264 95.89 141.982 96.653 142.188 97.4253C142.51 97.3586 142.887 97.2731 143.288 97.1677C143.347 96.9193 143.627 96.1664 144.863 95.9594C144.863 95.9594 143.432 96.3766 143.355 97.1496C144.181 96.9287 145.096 96.6243 145.848 96.2224Z" fill="#407D3B"/>
<path d="M141.094 97.8526C141.094 97.8526 140.342 98.0775 139.994 97.8566L140.043 97.8492C140.043 97.8492 139.698 97.6136 139.612 97.3713L139.644 97.376C139.516 97.2008 139.436 97.0024 139.409 96.7959L139.441 96.8005C139.441 96.8005 139.335 96.5843 139.374 96.0142C139.374 96.0142 139.456 95.7378 139.35 95.6077L139.358 95.5656C139.505 95.6507 139.68 95.6903 139.855 95.6784L139.863 95.6364C139.863 95.6364 140.333 95.7171 140.418 95.7866L140.423 95.7579C140.423 95.7579 140.818 95.9 140.905 96.0416L140.929 96.0015C140.929 96.0015 141.203 96.1844 141.226 96.4174L141.255 96.386C141.286 96.5475 141.303 96.7109 141.305 96.8746L141.325 96.8486C141.325 96.8486 141.61 97.5075 141.094 97.8526Z" fill="#57B894"/>
<path opacity="0.3" d="M141.094 97.8526C141.094 97.8526 140.342 98.0775 139.994 97.8566L140.043 97.8492C140.043 97.8492 139.698 97.6136 139.612 97.3713L139.644 97.376C139.516 97.2008 139.436 97.0024 139.409 96.7959L139.441 96.8005C139.441 96.8005 139.335 96.5843 139.374 96.0142C139.374 96.0142 139.456 95.7378 139.35 95.6077L139.358 95.5656C139.505 95.6507 139.68 95.6903 139.855 95.6784L139.863 95.6364C139.863 95.6364 140.333 95.7171 140.418 95.7866L140.423 95.7579C140.423 95.7579 140.818 95.9 140.905 96.0416L140.929 96.0015C140.929 96.0015 141.203 96.1844 141.226 96.4174L141.255 96.386C141.286 96.5475 141.303 96.7109 141.305 96.8746L141.325 96.8486C141.325 96.8486 141.61 97.5075 141.094 97.8526Z" fill="#407D3B"/>
<path d="M141.119 97.7958C141.119 97.7958 140.415 98.0034 140.089 97.7958L140.135 97.7892C140.135 97.7892 139.812 97.5709 139.731 97.3466L139.761 97.3506C139.642 97.1897 139.566 97.007 139.54 96.8166L139.57 96.8206C139.57 96.8206 139.47 96.6203 139.505 96.093C139.505 96.093 139.581 95.8373 139.482 95.7171L139.489 95.6778C139.627 95.757 139.79 95.7941 139.955 95.7832L139.962 95.7445C139.962 95.7445 140.403 95.8193 140.482 95.8834L140.486 95.858C140.486 95.858 140.856 95.9915 140.938 96.121L140.96 96.0836C140.96 96.0836 141.217 96.2532 141.239 96.4688L141.267 96.4394C141.296 96.5889 141.311 96.7403 141.313 96.892L141.333 96.868C141.333 96.868 141.601 97.4774 141.119 97.7958Z" fill="#57B894"/>
<path opacity="0.3" d="M139.765 95.9955C140.128 96.2808 140.449 96.6061 140.718 96.9634C140.949 96.6257 140.473 96.0956 140.473 96.0956C140.952 96.5068 140.782 96.9114 140.74 96.9948C140.834 97.1249 140.916 97.2615 140.984 97.4033C141.212 97.2698 141.046 96.6951 141.046 96.6951C141.249 97.1624 141.064 97.3693 140.995 97.426C141.051 97.5452 141.093 97.6695 141.119 97.7965C141.119 97.7965 141.043 97.6396 140.901 97.4093C140.772 97.4487 140.33 97.5429 139.913 97.125C139.913 97.125 140.492 97.5675 140.887 97.3826C140.811 97.2558 140.715 97.1083 140.607 96.9528C140.464 96.9594 140.019 96.9367 139.748 96.4428C139.748 96.4428 140.157 96.9921 140.588 96.9267C140.357 96.5882 140.081 96.2755 139.765 95.9955Z" fill="#407D3B"/>
<path d="M141.244 97.8199C141.244 97.8199 142.026 97.7077 142.33 97.9767H142.279C142.279 97.9767 142.575 98.2598 142.614 98.5108L142.584 98.5021C142.676 98.6933 142.718 98.9007 142.705 99.1082L142.675 99.0989C142.675 99.0989 142.739 99.3278 142.593 99.8845C142.593 99.8845 142.46 100.145 142.54 100.285L142.524 100.325C142.395 100.22 142.23 100.155 142.055 100.142L142.039 100.182C142.039 100.182 141.59 100.033 141.52 99.9526L141.51 99.98C141.51 99.98 141.147 99.7797 141.088 99.6295L141.057 99.6656C141.057 99.6656 140.821 99.446 140.843 99.2123L140.807 99.239C140.807 99.0754 140.822 98.912 140.851 98.7504L140.826 98.7724C140.826 98.7724 140.67 98.0849 141.244 97.8199Z" fill="#57B894"/>
<path opacity="0.3" d="M141.244 97.8132C141.244 97.8132 142.026 97.701 142.33 97.9701H142.279C142.279 97.9701 142.575 98.2524 142.614 98.5041L142.584 98.4954C142.676 98.6864 142.718 98.8935 142.705 99.1009L142.675 99.0922C142.675 99.0922 142.739 99.3211 142.593 99.8772C142.593 99.8772 142.46 100.138 142.54 100.278L142.524 100.318C142.395 100.213 142.23 100.148 142.055 100.134L142.039 100.175C142.039 100.175 141.59 100.027 141.52 99.9459L141.51 99.9726C141.51 99.9726 141.147 99.7724 141.088 99.6229L141.057 99.6589C141.057 99.6589 140.821 99.4386 140.843 99.2057L140.807 99.2324C140.807 99.0685 140.822 98.9049 140.851 98.7431L140.826 98.7658C140.826 98.7658 140.67 98.0782 141.244 97.8132Z" fill="#407D3B"/>
<path d="M141.21 97.8739C141.21 97.8739 141.943 97.7724 142.225 98.0228H142.178C142.178 98.0228 142.456 98.2851 142.493 98.5181L142.465 98.5094C142.552 98.6865 142.592 98.8788 142.581 99.0715L142.552 99.0628C142.552 99.0628 142.613 99.2751 142.476 99.7897C142.476 99.7897 142.353 100.031 142.428 100.164L142.413 100.202C142.293 100.103 142.138 100.043 141.975 100.029L141.96 100.067C141.96 100.067 141.539 99.9286 141.474 99.8538L141.464 99.8785C141.464 99.8785 141.125 99.6943 141.069 99.5528L141.04 99.5861C141.04 99.5861 140.819 99.3819 140.838 99.1656L140.805 99.191C140.804 99.0392 140.817 98.8876 140.845 98.7377L140.821 98.7584C140.821 98.7584 140.674 98.1156 141.21 97.8739Z" fill="#57B894"/>
<path opacity="0.3" d="M142.205 99.8451C141.899 99.5111 141.644 99.1435 141.445 98.7517C141.153 99.0508 141.521 99.6435 141.521 99.6435C141.127 99.1683 141.369 98.7938 141.429 98.7183C141.36 98.5763 141.305 98.4297 141.264 98.2798C141.015 98.3799 141.07 98.9693 141.07 98.9693C140.958 98.4767 141.179 98.3018 141.258 98.2557C141.226 98.1297 141.209 98.0011 141.207 97.8719C141.207 97.8719 141.255 98.0381 141.349 98.2858C141.483 98.2658 141.936 98.2391 142.271 98.711C142.271 98.711 141.783 98.1897 141.359 98.3145C141.411 98.448 141.476 98.6102 141.555 98.7818C141.697 98.7964 142.13 98.8839 142.305 99.4099C142.305 99.4099 142.005 98.8091 141.567 98.8091C141.731 99.1759 141.945 99.5238 142.205 99.8451Z" fill="#407D3B"/>
<path d="M150.59 104.637C150.59 104.637 148.236 105.567 148.201 107.631" stroke="#57B894" stroke-width="6" stroke-miterlimit="10"/>
<path opacity="0.3" d="M150.59 104.637C150.59 104.637 148.236 105.567 148.201 107.631" stroke="#407D3B" stroke-width="6" stroke-miterlimit="10"/>
<path d="M151.169 104.193C151.169 104.193 150.443 105.408 150.822 106.071L150.854 105.988C150.854 105.988 151.263 106.651 151.765 106.872V106.819C152.108 107.09 152.518 107.289 152.962 107.399V107.344C152.962 107.344 153.404 107.593 154.665 107.703C154.665 107.703 155.295 107.647 155.547 107.868H155.642C155.501 107.591 155.468 107.281 155.547 106.985H155.642C155.642 106.985 155.61 106.157 155.484 105.991H155.547C155.547 105.991 155.358 105.273 155.074 105.08L155.169 105.052C155.169 105.052 154.86 104.525 154.353 104.416L154.429 104.374C154.429 104.374 153.72 104.167 153.373 104.139L153.436 104.112C153.436 104.112 152.083 103.42 151.169 104.193Z" fill="#57B894"/>
<path opacity="0.3" d="M151.169 104.193C151.169 104.193 150.443 105.408 150.822 106.071L150.854 105.988C150.854 105.988 151.263 106.651 151.765 106.872V106.819C152.108 107.09 152.518 107.289 152.962 107.399V107.344C152.962 107.344 153.404 107.593 154.665 107.703C154.665 107.703 155.295 107.647 155.547 107.868H155.642C155.501 107.591 155.468 107.281 155.547 106.985H155.642C155.642 106.985 155.61 106.157 155.484 105.991H155.547C155.547 105.991 155.358 105.273 155.074 105.08L155.169 105.052C155.169 105.052 154.86 104.525 154.353 104.416L154.429 104.374C154.429 104.374 153.72 104.167 153.373 104.139L153.436 104.112C153.436 104.112 152.083 103.42 151.169 104.193Z" fill="#407D3B"/>
<path d="M151.149 104.179C151.149 104.179 150.455 105.346 150.817 105.981L150.847 105.902C150.847 105.902 151.239 106.538 151.722 106.75V106.697C152.051 106.958 152.443 107.148 152.869 107.254V107.201C152.869 107.201 153.291 107.44 154.499 107.546C154.499 107.546 155.102 107.493 155.343 107.705H155.434C155.299 107.439 155.267 107.14 155.343 106.856H155.434C155.434 106.856 155.404 106.061 155.282 105.902H155.342C155.342 105.902 155.161 105.212 154.886 105.027L154.976 105C154.976 105 154.673 104.496 154.192 104.39L154.268 104.35C154.268 104.35 153.589 104.15 153.257 104.125L153.317 104.098C153.317 104.098 152.024 103.436 151.149 104.179Z" fill="#57B894"/>
<path opacity="0.3" d="M154.8 107.123C154.269 106.395 153.633 105.73 152.909 105.145C153.748 104.847 154.8 105.85 154.8 105.85C154.02 104.881 153.049 105.049 152.846 105.097C152.581 104.891 152.298 104.705 151.998 104.54C152.378 104.183 153.623 104.656 153.623 104.656C152.624 104.151 152.1 104.41 151.952 104.514C151.699 104.378 151.431 104.266 151.151 104.18C151.151 104.18 151.482 104.369 151.96 104.685C151.829 104.898 151.479 105.642 152.29 106.509C152.29 106.509 151.47 105.355 152.015 104.722C152.278 104.898 152.583 105.11 152.901 105.35C152.84 105.598 152.749 106.384 153.783 107.018C153.783 107.018 152.668 106.127 152.954 105.393C153.602 105.884 154.298 106.485 154.8 107.123Z" fill="#407D3B"/>
<path d="M151.163 104.149C151.163 104.149 151.264 102.78 150.613 102.309L150.622 102.396C150.622 102.396 149.939 101.937 149.379 101.914L149.404 101.965C148.965 101.84 148.499 101.804 148.042 101.862L148.067 101.912C148.067 101.912 147.549 101.846 146.346 102.192C146.346 102.192 145.794 102.467 145.462 102.355L145.376 102.389C145.633 102.592 145.806 102.864 145.87 103.163L145.784 103.197C145.784 103.197 146.195 103.942 146.387 104.049L146.329 104.071C146.329 104.071 146.833 104.66 147.182 104.739L147.106 104.798C147.106 104.798 147.638 105.165 148.149 105.086L148.095 105.153C148.095 105.153 148.839 105.086 149.169 104.99L149.124 105.038C149.124 105.038 150.684 105.179 151.163 104.149Z" fill="#57B894"/>
<path opacity="0.3" d="M151.163 104.149C151.163 104.149 151.264 102.78 150.613 102.309L150.622 102.396C150.622 102.396 149.939 101.937 149.379 101.914L149.404 101.965C148.965 101.84 148.499 101.804 148.042 101.862L148.067 101.912C148.067 101.912 147.549 101.846 146.346 102.192C146.346 102.192 145.794 102.467 145.462 102.355L145.376 102.389C145.633 102.592 145.806 102.864 145.87 103.163L145.784 103.197C145.784 103.197 146.195 103.942 146.387 104.049L146.329 104.071C146.329 104.071 146.833 104.66 147.182 104.739L147.106 104.798C147.106 104.798 147.638 105.165 148.149 105.086L148.095 105.153C148.095 105.153 148.839 105.086 149.169 104.99L149.124 105.038C149.124 105.038 150.684 105.179 151.163 104.149Z" fill="#407D3B"/>
<path d="M151.187 104.153C151.187 104.153 151.283 102.839 150.655 102.386L150.665 102.47C150.665 102.47 150.012 102.028 149.473 102.003L149.497 102.051C149.077 101.931 148.631 101.896 148.193 101.951L148.217 101.999C148.217 101.999 147.72 101.933 146.568 102.266C146.568 102.266 146.041 102.53 145.723 102.422L145.64 102.455C145.887 102.65 146.053 102.911 146.115 103.198L146.032 103.23C146.032 103.23 146.431 103.948 146.613 104.052L146.558 104.073C146.558 104.073 147.041 104.639 147.376 104.712L147.305 104.768C147.305 104.768 147.814 105.121 148.304 105.046L148.253 105.109C148.253 105.109 148.966 105.049 149.281 104.955L149.238 105C149.238 105 150.73 105.144 151.187 104.153Z" fill="#57B894"/>
<path opacity="0.3" d="M146.491 102.764C147.312 103.241 148.2 103.622 149.133 103.899C148.504 104.471 147.079 103.93 147.079 103.93C148.239 104.538 149.053 104.037 149.212 103.921C149.549 104.015 149.894 104.084 150.244 104.128C150.062 104.589 148.705 104.601 148.705 104.601C149.852 104.706 150.211 104.283 150.3 104.134C150.594 104.168 150.891 104.175 151.186 104.154C151.186 104.154 150.797 104.099 150.213 103.98C150.235 103.74 150.213 102.935 149.07 102.432C149.07 102.432 150.352 103.195 150.147 103.967C149.825 103.9 149.449 103.815 149.048 103.709C148.988 103.461 148.707 102.708 147.472 102.501C147.472 102.501 148.903 102.918 148.979 103.691C148.158 103.471 147.243 103.166 146.491 102.764Z" fill="#407D3B"/>
<path d="M151.244 104.394C151.244 104.394 151.997 104.619 152.345 104.398L152.295 104.391C152.295 104.391 152.641 104.155 152.726 103.913L152.695 103.918C152.823 103.743 152.903 103.544 152.93 103.338L152.898 103.342C152.898 103.342 153.004 103.126 152.965 102.556C152.965 102.556 152.883 102.28 152.989 102.149L152.981 102.107C152.834 102.192 152.659 102.232 152.484 102.22L152.476 102.178C152.476 102.178 152.006 102.259 151.921 102.328L151.916 102.3C151.916 102.3 151.521 102.442 151.434 102.583L151.41 102.543C151.41 102.543 151.135 102.726 151.113 102.959L151.083 102.928C151.052 103.089 151.036 103.253 151.034 103.416L151.014 103.39C151.014 103.39 150.728 104.049 151.244 104.394Z" fill="#57B894"/>
<path opacity="0.3" d="M151.244 104.394C151.244 104.394 151.997 104.619 152.345 104.398L152.295 104.391C152.295 104.391 152.641 104.155 152.726 103.913L152.695 103.918C152.823 103.743 152.903 103.544 152.93 103.338L152.898 103.342C152.898 103.342 153.004 103.126 152.965 102.556C152.965 102.556 152.883 102.28 152.989 102.149L152.981 102.107C152.834 102.192 152.659 102.232 152.484 102.22L152.476 102.178C152.476 102.178 152.006 102.259 151.921 102.328L151.916 102.3C151.916 102.3 151.521 102.442 151.434 102.583L151.41 102.543C151.41 102.543 151.135 102.726 151.113 102.959L151.083 102.928C151.052 103.089 151.036 103.253 151.034 103.416L151.014 103.39C151.014 103.39 150.728 104.049 151.244 104.394Z" fill="#407D3B"/>
<path d="M151.22 104.338C151.22 104.338 151.924 104.545 152.25 104.338L152.204 104.331C152.204 104.331 152.527 104.113 152.608 103.888L152.578 103.892C152.697 103.731 152.772 103.549 152.798 103.358L152.77 103.362C152.77 103.362 152.869 103.162 152.834 102.635C152.834 102.635 152.758 102.379 152.857 102.259L152.849 102.22C152.712 102.299 152.548 102.336 152.384 102.325L152.377 102.286C152.377 102.286 151.936 102.361 151.857 102.425L151.852 102.4C151.852 102.4 151.483 102.533 151.4 102.663L151.379 102.625C151.379 102.625 151.122 102.795 151.1 103.011L151.072 102.981C151.043 103.131 151.028 103.282 151.026 103.434L151.006 103.41C151.006 103.41 150.738 104.019 151.22 104.338Z" fill="#57B894"/>
<path opacity="0.3" d="M152.574 102.537C152.21 102.822 151.89 103.148 151.621 103.505C151.393 103.167 151.865 102.637 151.865 102.637C151.387 103.049 151.556 103.453 151.599 103.537C151.505 103.667 151.423 103.803 151.355 103.945C151.127 103.812 151.293 103.237 151.293 103.237C151.09 103.704 151.274 103.911 151.344 103.968C151.288 104.087 151.246 104.211 151.22 104.338C151.22 104.338 151.296 104.181 151.438 103.951C151.567 103.991 152.009 104.085 152.426 103.667C152.426 103.667 151.847 104.109 151.452 103.924C151.528 103.798 151.624 103.65 151.732 103.495C151.875 103.501 152.32 103.479 152.591 102.985C152.591 102.985 152.182 103.534 151.75 103.468C151.982 103.13 152.258 102.817 152.574 102.537Z" fill="#407D3B"/>
<path d="M151.095 104.362C151.095 104.362 150.31 104.25 150.008 104.519H150.059C150.059 104.519 149.763 104.802 149.724 105.053L149.755 105.044C149.662 105.235 149.62 105.442 149.632 105.65L149.663 105.641C149.663 105.641 149.599 105.87 149.745 106.426C149.745 106.426 149.879 106.687 149.799 106.827L149.814 106.867C149.943 106.762 150.108 106.697 150.283 106.683L150.298 106.723C150.298 106.723 150.748 106.575 150.818 106.494L150.829 106.522C150.829 106.522 151.191 106.322 151.251 106.171L151.281 106.207C151.281 106.207 151.517 105.988 151.495 105.754L151.531 105.781C151.531 105.617 151.516 105.454 151.487 105.292L151.512 105.314C151.512 105.314 151.671 104.627 151.095 104.362Z" fill="#57B894"/>
<path opacity="0.3" d="M151.095 104.355C151.095 104.355 150.31 104.243 150.008 104.512H150.059C150.059 104.512 149.763 104.794 149.724 105.046L149.755 105.037C149.662 105.228 149.62 105.435 149.632 105.643L149.663 105.634C149.663 105.634 149.599 105.863 149.745 106.419C149.745 106.419 149.878 106.679 149.799 106.819L149.814 106.86C149.943 106.755 150.108 106.69 150.283 106.676L150.298 106.717C150.298 106.717 150.748 106.568 150.818 106.488L150.829 106.514C150.829 106.514 151.191 106.314 151.251 106.165L151.281 106.201C151.281 106.201 151.517 105.98 151.495 105.747L151.531 105.774C151.531 105.61 151.516 105.447 151.487 105.285L151.512 105.308C151.512 105.308 151.671 104.62 151.095 104.355Z" fill="#407D3B"/>
<path d="M151.129 104.416C151.129 104.416 150.396 104.314 150.113 104.565H150.16C150.16 104.565 149.882 104.827 149.846 105.06L149.874 105.051C149.787 105.228 149.747 105.421 149.758 105.613L149.787 105.605C149.787 105.605 149.726 105.817 149.863 106.332C149.863 106.332 149.986 106.573 149.911 106.706L149.926 106.743C150.046 106.645 150.201 106.585 150.364 106.571L150.379 106.609C150.379 106.609 150.799 106.47 150.865 106.396L150.875 106.42C150.875 106.42 151.214 106.236 151.27 106.095L151.299 106.128C151.299 106.128 151.52 105.924 151.501 105.707L151.534 105.733C151.534 105.581 151.521 105.429 151.494 105.28L151.518 105.3C151.518 105.3 151.665 104.657 151.129 104.416Z" fill="#57B894"/>
<path opacity="0.3" d="M150.134 106.387C150.44 106.053 150.696 105.685 150.894 105.294C151.186 105.593 150.818 106.185 150.818 106.185C151.212 105.71 150.97 105.336 150.911 105.26C150.978 105.118 151.033 104.971 151.074 104.822C151.324 104.922 151.269 105.511 151.269 105.511C151.381 105.019 151.16 104.844 151.08 104.798C151.113 104.672 151.131 104.543 151.132 104.414C151.132 104.414 151.084 104.58 150.99 104.828C150.856 104.808 150.403 104.781 150.068 105.253C150.068 105.253 150.555 104.731 150.98 104.856C150.927 104.99 150.863 105.152 150.784 105.324C150.642 105.338 150.208 105.426 150.034 105.952C150.034 105.952 150.338 105.351 150.772 105.351C150.607 105.718 150.393 106.065 150.134 106.387Z" fill="#407D3B"/>
<path opacity="0.7" d="M164.298 98.8232C164.156 100.144 163.914 101.454 163.575 102.747C163.408 103.373 163.224 103.952 163.029 104.489C162.979 104.623 162.928 104.756 162.877 104.89C162.765 105.179 162.649 105.456 162.53 105.72C161.835 107.265 160.721 108.636 159.284 109.715C157.847 110.795 156.132 111.548 154.288 111.911C147.008 113.342 142.013 110.576 142.013 110.576C138.891 108.857 137.404 106.522 136.729 104.386C136.693 104.269 136.658 104.153 136.627 104.038C136.547 103.753 136.482 103.473 136.429 103.199C135.954 100.758 136.429 98.8292 136.429 98.8292C146.176 102.63 164.298 98.8232 164.298 98.8232Z" fill="#A1C4F5"/>
<path opacity="0.5" d="M163.029 104.489C162.87 104.926 162.705 105.336 162.533 105.716C161.837 107.261 160.723 108.632 159.286 109.711C157.849 110.791 156.134 111.544 154.29 111.907C147.01 113.338 142.016 110.572 142.016 110.572C138.723 108.76 137.249 106.261 136.629 104.035C138.945 104.777 150.696 108.154 163.029 104.489Z" fill="#FCC329"/>
<path d="M165.639 101.836C164.9 101.831 164.182 102.05 163.605 102.457C163.569 102.603 163.532 102.747 163.494 102.888C163.327 103.515 163.143 104.095 162.948 104.631C162.897 104.764 162.847 104.898 162.796 105.031L162.77 105.098C163.196 106.032 164.318 106.7 165.637 106.7C167.321 106.7 168.685 105.612 168.685 104.27C168.685 102.928 167.323 101.836 165.639 101.836ZM165.639 106.046C164.405 106.046 163.404 105.249 163.404 104.265C163.404 103.281 164.405 102.483 165.639 102.483C166.874 102.483 167.875 103.284 167.875 104.265C167.875 105.245 166.874 106.046 165.639 106.046Z" fill="#A1C4F5"/>
<path opacity="0.1" d="M139.431 97.0061C139.339 97.0688 139.228 97.1083 139.112 97.1203C138.96 97.129 138.639 97.0535 138.545 96.9367C138.505 96.8793 138.486 96.8128 138.49 96.7458C138.511 96.7398 138.532 96.7362 138.554 96.7351C138.719 96.7191 138.885 96.725 139.047 96.7525C139.128 96.7667 139.205 96.7967 139.271 96.8404C139.338 96.8841 139.392 96.9402 139.431 97.0048C139.431 97.0048 139.431 97.0061 139.431 97.0061Z" fill="black"/>
<path opacity="0.1" d="M138.549 98.5234C138.488 98.3899 138.233 98.0161 138.307 97.8886C138.383 97.984 138.449 98.0863 138.501 98.1937C138.55 98.2978 138.51 98.4373 138.549 98.5234Z" fill="black"/>
<path opacity="0.1" d="M132.366 94.1184C132.374 94.132 132.379 94.1471 132.379 94.1625C132.379 94.1753 132.375 94.1878 132.369 94.1993C132.362 94.2108 132.353 94.221 132.342 94.2292C132.315 94.2463 132.283 94.2563 132.249 94.2579C132.226 94.2579 132.202 94.2626 132.177 94.2633C132.145 94.2655 132.112 94.2604 132.082 94.2486C132.076 94.2459 132.07 94.2427 132.065 94.2392C132.076 94.2291 132.085 94.2179 132.093 94.2059C132.099 94.2099 132.104 94.2059 132.126 94.2059C132.167 94.2041 132.207 94.1982 132.246 94.1885C132.262 94.1843 132.277 94.1777 132.29 94.1691C132.31 94.1545 132.325 94.135 132.332 94.1131L132.366 94.1184Z" fill="black"/>
<g opacity="0.1">
<path d="M165.812 106.04C165.869 106.04 165.927 106.046 165.986 106.046C167.22 106.046 168.221 105.249 168.221 104.265C168.221 103.281 167.22 102.483 165.986 102.483C165.927 102.483 165.869 102.487 165.812 102.491C166.966 102.561 167.875 103.328 167.875 104.265C167.875 105.202 166.966 105.969 165.812 106.04Z" fill="black"/>
</g>
<path opacity="0.3" d="M163.029 104.488C163.224 103.954 163.409 103.372 163.575 102.746C161.714 101.623 156.463 100.811 150.276 100.811C143.289 100.811 137.5 101.842 136.431 103.191C136.484 103.464 136.549 103.744 136.629 104.029C136.629 104.029 136.629 104.029 136.629 104.035V104.03C138.945 104.777 150.696 108.154 163.029 104.488Z" fill="#FCC329"/>
<path d="M140.227 112.135C140.227 112.135 138.44 111.51 138.337 109.974" stroke="#57B894" stroke-width="6" stroke-miterlimit="10"/>
<path opacity="0.3" d="M140.227 112.135C140.227 112.135 138.44 111.51 138.337 109.974" stroke="#407D3B" stroke-width="6" stroke-miterlimit="10"/>
<path d="M140.674 112.449C140.674 112.449 140.089 111.565 140.346 111.06L140.373 111.121C140.373 111.121 140.653 110.616 141.021 110.437V110.478C141.266 110.266 141.564 110.106 141.891 110.011V110.052C141.891 110.052 142.21 109.852 143.146 109.736C143.146 109.736 143.617 109.759 143.796 109.587H143.867C143.772 109.798 143.759 110.03 143.829 110.248H143.9C143.9 110.248 143.907 110.865 143.819 110.992H143.866C143.866 110.992 143.752 111.532 143.548 111.684L143.619 111.702C143.619 111.702 143.405 112.102 143.033 112.198L143.093 112.227C143.093 112.227 142.572 112.401 142.316 112.432L142.363 112.451C142.363 112.451 141.384 112.998 140.674 112.449Z" fill="#57B894"/>
<path opacity="0.3" d="M140.674 112.449C140.674 112.449 140.089 111.565 140.346 111.06L140.373 111.121C140.373 111.121 140.653 110.616 141.021 110.437V110.478C141.266 110.266 141.564 110.106 141.891 110.011V110.052C141.891 110.052 142.21 109.852 143.146 109.736C143.146 109.736 143.617 109.759 143.796 109.587H143.867C143.772 109.798 143.759 110.03 143.829 110.248H143.9C143.9 110.248 143.907 110.865 143.819 110.992H143.866C143.866 110.992 143.752 111.532 143.548 111.684L143.619 111.702C143.619 111.702 143.405 112.102 143.033 112.198L143.093 112.227C143.093 112.227 142.572 112.401 142.316 112.432L142.363 112.451C142.363 112.451 141.384 112.998 140.674 112.449Z" fill="#407D3B"/>
<path d="M140.659 112.46C140.659 112.46 140.099 111.611 140.345 111.125L140.37 111.183C140.37 111.183 140.639 110.698 140.99 110.526V110.566C141.226 110.362 141.512 110.209 141.826 110.118V110.157C141.826 110.157 142.129 109.968 143.026 109.853C143.026 109.853 143.477 109.876 143.65 109.711H143.717C143.626 109.913 143.613 110.136 143.681 110.345H143.748C143.748 110.345 143.755 110.938 143.673 111.06H143.717C143.717 111.06 143.608 111.579 143.414 111.728L143.482 111.745C143.482 111.745 143.276 112.128 142.921 112.222L142.978 112.249C142.978 112.249 142.48 112.417 142.234 112.449L142.28 112.467C142.28 112.467 141.343 112.987 140.659 112.46Z" fill="#57B894"/>
<path opacity="0.3" d="M143.27 110.162C142.901 110.72 142.453 111.234 141.935 111.692C142.571 111.892 143.317 111.112 143.317 111.112C142.773 111.857 142.043 111.759 141.89 111.729C141.702 111.89 141.498 112.037 141.283 112.169C141.579 112.423 142.489 112.036 142.489 112.036C141.763 112.441 141.364 112.263 141.248 112.19C141.065 112.298 140.869 112.39 140.665 112.463C140.665 112.463 140.903 112.313 141.248 112.062C141.142 111.907 140.854 111.364 141.425 110.694C141.425 110.694 140.858 111.578 141.287 112.034C141.476 111.895 141.696 111.728 141.924 111.541C141.869 111.358 141.772 110.775 142.518 110.273C142.518 110.273 141.721 110.969 141.962 111.507C142.423 111.12 142.919 110.65 143.27 110.162Z" fill="#407D3B"/>
<path d="M140.671 112.483C140.671 112.483 140.798 113.5 140.33 113.869L140.334 113.803C140.334 113.803 139.844 114.164 139.423 114.196L139.444 114.162C139.122 114.268 138.776 114.307 138.433 114.277L138.45 114.239C138.45 114.239 138.07 114.306 137.159 114.08C137.159 114.08 136.739 113.891 136.495 113.984L136.43 113.961C136.614 113.803 136.733 113.595 136.77 113.371L136.703 113.349C136.703 113.349 136.982 112.781 137.121 112.696L137.077 112.681C137.077 112.681 137.431 112.228 137.685 112.162L137.628 112.12C137.628 112.12 138.007 111.832 138.393 111.876L138.351 111.829C138.351 111.829 138.907 111.855 139.156 111.918L139.121 111.884C139.121 111.884 140.28 111.729 140.671 112.483Z" fill="#57B894"/>
<path opacity="0.3" d="M140.671 112.483C140.671 112.483 140.798 113.5 140.33 113.869L140.334 113.803C140.334 113.803 139.844 114.164 139.423 114.196L139.444 114.162C139.122 114.268 138.776 114.307 138.433 114.277L138.45 114.239C138.45 114.239 138.07 114.306 137.159 114.08C137.159 114.08 136.739 113.891 136.495 113.984L136.43 113.961C136.614 113.803 136.733 113.595 136.77 113.371L136.703 113.349C136.703 113.349 136.982 112.781 137.121 112.696L137.077 112.681C137.077 112.681 137.431 112.228 137.685 112.162L137.628 112.12C137.628 112.12 138.007 111.832 138.393 111.876L138.351 111.829C138.351 111.829 138.907 111.855 139.156 111.918L139.121 111.884C139.121 111.884 140.28 111.729 140.671 112.483Z" fill="#407D3B"/>
<path d="M140.69 112.478C140.69 112.478 140.81 113.454 140.362 113.809V113.746C140.362 113.746 139.892 114.094 139.492 114.126L139.508 114.09C139.199 114.191 138.868 114.23 138.54 114.202L138.556 114.164C138.556 114.164 138.19 114.231 137.319 114.014C137.319 114.014 136.917 113.833 136.684 113.922L136.621 113.901C136.797 113.748 136.911 113.549 136.947 113.333L136.883 113.311C136.883 113.311 137.151 112.767 137.284 112.685L137.242 112.67C137.242 112.67 137.581 112.235 137.827 112.172L137.773 112.132C137.773 112.132 138.138 111.854 138.506 111.896L138.466 111.85C138.466 111.85 138.998 111.875 139.238 111.935L139.203 111.903C139.203 111.903 140.312 111.753 140.69 112.478Z" fill="#57B894"/>
<path opacity="0.3" d="M137.242 113.647C137.836 113.269 138.483 112.96 139.167 112.728C138.677 112.32 137.636 112.764 137.636 112.764C138.478 112.278 139.099 112.63 139.225 112.709C139.472 112.63 139.726 112.568 139.984 112.526C139.832 112.187 138.82 112.217 138.82 112.217C139.671 112.106 139.954 112.411 140.026 112.519C140.243 112.485 140.464 112.471 140.685 112.478C140.685 112.478 140.397 112.53 139.967 112.635C139.992 112.815 140.005 113.414 139.174 113.822C139.174 113.822 140.1 113.217 139.918 112.648C139.681 112.706 139.404 112.781 139.109 112.871C139.074 113.058 138.893 113.624 137.981 113.816C137.981 113.816 139.03 113.464 139.059 112.886C138.457 113.074 137.789 113.327 137.242 113.647Z" fill="#407D3B"/>
<path d="M140.723 112.297C140.723 112.297 141.275 112.108 141.543 112.263L141.506 112.269C141.506 112.269 141.773 112.435 141.845 112.612H141.821C141.923 112.739 141.99 112.884 142.018 113.037H141.994C141.994 113.037 142.082 113.195 142.07 113.62C142.07 113.62 142.019 113.829 142.103 113.922L142.099 113.954C141.987 113.895 141.855 113.87 141.725 113.884L141.72 113.915C141.72 113.915 141.367 113.869 141.301 113.82V113.841C141.301 113.841 141.001 113.747 140.931 113.641L140.915 113.672C140.915 113.672 140.704 113.544 140.678 113.371L140.657 113.395C140.628 113.276 140.61 113.154 140.602 113.032L140.588 113.052C140.588 113.052 140.355 112.568 140.723 112.297Z" fill="#57B894"/>
<path opacity="0.3" d="M140.723 112.297C140.723 112.297 141.275 112.108 141.543 112.263L141.506 112.269C141.506 112.269 141.773 112.435 141.845 112.612H141.821C141.923 112.739 141.99 112.884 142.018 113.037H141.994C141.994 113.037 142.082 113.195 142.07 113.62C142.07 113.62 142.019 113.829 142.103 113.922L142.099 113.954C141.987 113.895 141.855 113.87 141.725 113.884L141.72 113.915C141.72 113.915 141.367 113.869 141.301 113.82V113.841C141.301 113.841 141.001 113.747 140.931 113.641L140.915 113.672C140.915 113.672 140.704 113.544 140.678 113.371L140.657 113.395C140.628 113.276 140.61 113.154 140.602 113.032L140.588 113.052C140.588 113.052 140.355 112.568 140.723 112.297Z" fill="#407D3B"/>
<path d="M140.707 112.34C140.707 112.34 141.223 112.165 141.474 112.309L141.44 112.315C141.44 112.315 141.689 112.468 141.757 112.633H141.735C141.831 112.75 141.894 112.885 141.92 113.027H141.897C141.897 113.027 141.979 113.174 141.973 113.568C141.973 113.568 141.925 113.76 142.003 113.847L142 113.876C141.894 113.821 141.771 113.797 141.65 113.809L141.646 113.839C141.646 113.839 141.315 113.795 141.253 113.75V113.769C141.253 113.769 140.973 113.682 140.907 113.586L140.892 113.614C140.892 113.614 140.694 113.496 140.67 113.336L140.65 113.359C140.623 113.249 140.606 113.137 140.598 113.025L140.585 113.043C140.585 113.043 140.361 112.591 140.707 112.34Z" fill="#57B894"/>
<path opacity="0.3" d="M141.783 113.642C141.502 113.439 141.252 113.206 141.039 112.948C140.879 113.206 141.254 113.588 141.254 113.588C140.882 113.295 140.993 112.987 141.021 112.926C140.947 112.832 140.881 112.732 140.825 112.628C140.66 112.736 140.805 113.158 140.805 113.158C140.636 112.814 140.766 112.656 140.816 112.612C140.77 112.525 140.734 112.434 140.709 112.34C140.709 112.34 140.775 112.454 140.886 112.622C140.981 112.589 141.306 112.507 141.634 112.805C141.634 112.805 141.186 112.492 140.899 112.641C140.961 112.733 141.037 112.841 141.127 112.953C141.233 112.944 141.565 112.948 141.785 113.308C141.785 113.308 141.46 112.907 141.142 112.974C141.325 113.218 141.54 113.443 141.783 113.642Z" fill="#407D3B"/>
<path d="M140.614 112.325C140.614 112.325 140.033 112.431 139.798 112.24H139.836C139.836 112.24 139.608 112.04 139.567 111.852L139.59 111.858C139.514 111.718 139.475 111.565 139.477 111.41L139.5 111.416C139.5 111.416 139.443 111.247 139.532 110.829C139.532 110.829 139.621 110.628 139.556 110.526L139.566 110.496C139.666 110.571 139.792 110.614 139.923 110.619L139.933 110.589C139.933 110.589 140.273 110.686 140.327 110.745L140.334 110.724C140.334 110.724 140.611 110.857 140.662 110.973L140.684 110.945C140.684 110.945 140.867 111.102 140.86 111.279L140.885 111.257C140.891 111.379 140.886 111.502 140.87 111.623L140.889 111.606C140.889 111.606 141.031 112.112 140.614 112.325Z" fill="#57B894"/>
<path opacity="0.3" d="M140.614 112.331C140.614 112.331 140.033 112.437 139.799 112.245H139.836C139.836 112.245 139.608 112.044 139.567 111.857L139.59 111.863C139.514 111.723 139.475 111.57 139.477 111.415L139.5 111.421C139.5 111.421 139.443 111.252 139.532 110.833C139.532 110.833 139.621 110.633 139.557 110.531L139.566 110.5C139.666 110.575 139.792 110.618 139.923 110.624L139.932 110.593C139.932 110.593 140.273 110.691 140.328 110.749L140.334 110.729C140.334 110.729 140.612 110.865 140.662 110.977L140.684 110.95C140.684 110.95 140.867 111.106 140.86 111.283L140.886 111.263C140.892 111.384 140.887 111.507 140.87 111.628L140.889 111.61C140.889 111.61 141.031 112.117 140.614 112.331Z" fill="#407D3B"/>
<path d="M140.637 112.285C140.637 112.285 140.095 112.382 139.878 112.204H139.913C139.913 112.204 139.696 112.016 139.66 111.844L139.682 111.849C139.61 111.72 139.573 111.578 139.574 111.435L139.595 111.44C139.595 111.44 139.543 111.284 139.623 110.897C139.623 110.897 139.707 110.714 139.646 110.616L139.655 110.588C139.749 110.658 139.866 110.699 139.989 110.704L139.998 110.675C139.998 110.675 140.316 110.767 140.368 110.821L140.374 110.801C140.374 110.801 140.634 110.929 140.681 111.032L140.701 111.007C140.701 111.007 140.873 111.152 140.867 111.314L140.887 111.291C140.893 111.404 140.889 111.517 140.874 111.63L140.891 111.614C140.891 111.614 141.027 112.088 140.637 112.285Z" fill="#57B894"/>
<path opacity="0.3" d="M139.824 110.845C140.064 111.085 140.269 111.352 140.431 111.638C140.637 111.406 140.34 110.975 140.34 110.975C140.652 111.318 140.485 111.604 140.444 111.662C140.5 111.766 140.546 111.873 140.583 111.984C140.765 111.901 140.702 111.465 140.702 111.465C140.803 111.828 140.645 111.965 140.588 111.999C140.617 112.091 140.635 112.187 140.641 112.283C140.641 112.283 140.598 112.16 140.519 111.979C140.42 111.998 140.084 112.03 139.817 111.689C139.817 111.689 140.197 112.063 140.51 111.956C140.466 111.855 140.412 111.739 140.348 111.615C140.242 111.608 139.915 111.556 139.765 111.169C139.765 111.169 140.011 111.608 140.337 111.594C140.201 111.327 140.029 111.076 139.824 110.845Z" fill="#407D3B"/>
<g opacity="0.1">
<path d="M160.017 99.6502C160.036 99.6816 160.176 99.755 160.347 99.8365C160.363 99.7277 160.374 99.6449 160.377 99.6195C160.387 99.5254 160.16 99.1069 160.16 99.1069C160.16 99.1069 159.725 98.5942 159.735 98.5174C159.745 98.4407 159.567 98.2184 159.567 98.2184L159.174 97.6563C159.195 97.6992 159.203 97.7465 159.196 97.7929C159.188 97.8394 159.167 97.8831 159.133 97.9193C159.014 98.0528 159.113 98.3292 159.113 98.3292L159.089 98.6743V98.7083C159.103 98.7204 159.165 98.7751 159.307 98.8846C159.449 98.994 159.413 99.0181 159.398 99.0268C159.428 99.0728 159.392 99.0808 159.392 99.0808C159.38 99.0802 159.369 99.0802 159.357 99.0808L159.389 99.1062C159.63 99.3031 159.982 99.5942 160.017 99.6502Z" fill="url(#paint0_linear_0_1)"/>
</g>
<path opacity="0.05" d="M163.006 105.369C163.006 105.369 162.465 105.495 162.513 105.636L163.006 105.369Z" fill="black"/>
<path d="M162.577 110.903C162.597 110.903 162.614 110.889 162.614 110.871C162.614 110.853 162.597 110.838 162.577 110.838C162.556 110.838 162.539 110.853 162.539 110.871C162.539 110.889 162.556 110.903 162.577 110.903Z" fill="#4B4B5B"/>
<path d="M163.035 111.075C163.056 111.075 163.072 111.06 163.072 111.042C163.072 111.024 163.056 111.01 163.035 111.01C163.015 111.01 162.998 111.024 162.998 111.042C162.998 111.06 163.015 111.075 163.035 111.075Z" fill="#4B4B5B"/>
<path d="M162.855 111.319C162.875 111.319 162.892 111.305 162.892 111.287C162.892 111.269 162.875 111.254 162.855 111.254C162.834 111.254 162.817 111.269 162.817 111.287C162.817 111.305 162.834 111.319 162.855 111.319Z" fill="#4B4B5B"/>
<path d="M163.484 111.237C163.505 111.237 163.521 111.222 163.521 111.204C163.521 111.186 163.505 111.171 163.484 111.171C163.464 111.171 163.447 111.186 163.447 111.204C163.447 111.222 163.464 111.237 163.484 111.237Z" fill="#4B4B5B"/>
<path d="M162.779 111.01C162.8 111.01 162.817 110.995 162.817 110.977C162.817 110.959 162.8 110.944 162.779 110.944C162.759 110.944 162.742 110.959 162.742 110.977C162.742 110.995 162.759 111.01 162.779 111.01Z" fill="#4B4B5B"/>
<path opacity="0.03" d="M164.906 103.402C164.906 103.402 165.846 103.503 166.032 103.673C166.032 103.673 165.207 103.723 165.172 103.818C165.172 103.818 165.643 103.538 165.774 103.61L164.906 103.402Z" fill="black"/>
<path opacity="0.05" d="M162.955 106.928L162.926 106.952L162.834 107.036C162.793 107.074 162.758 107.103 162.731 107.134L162.609 106.995C162.651 106.964 162.697 106.939 162.747 106.922C162.781 106.908 162.817 106.902 162.854 106.903C162.89 106.904 162.926 106.912 162.959 106.927L162.955 106.928Z" fill="black"/>
<path opacity="0.1" d="M158.243 96.4541C158.243 96.4541 158.477 96.1644 158.707 96.3493C158.936 96.5342 158.243 96.4541 158.243 96.4541Z" fill="black"/>
<path opacity="0.1" d="M159.883 96.2051C159.883 96.2051 160.481 96.2051 160.772 96.3226C161.064 96.4401 160.514 95.9708 159.883 96.2051Z" fill="black"/>
</g>
<defs>
<linearGradient id="paint0_linear_0_1" x1="160.377" y1="98.7464" x2="159.074" y2="98.7464" gradientUnits="userSpaceOnUse">
<stop stop-color="#808080" stop-opacity="0.25"/>
<stop offset="0.54" stop-color="#808080" stop-opacity="0.12"/>
<stop offset="1" stop-color="#808080" stop-opacity="0.1"/>
</linearGradient>
<clipPath id="clip0_0_1">
<rect width="84" height="50" fill="white" transform="translate(108 67)"/>
</clipPath>
</defs>
</svg>
