<svg  height="40" viewBox="0 0 114 30" fill="none" xmlns="http://www.w3.org/2000/svg" ><path d="M7.709 25.552c-1.35-1.239-1.745-3.842-1.182-5.727.975 1.189 2.327 1.565 3.728 1.778 2.161.328 4.284.205 6.293-.786.23-.114.442-.265.693-.418.188.549.237 1.103.171 1.666-.16 1.373-.84 2.433-1.923 3.237-.433.322-.892.61-1.339.912-1.373.932-1.745 2.025-1.229 3.614l.051.172a3.6 3.6 0 0 1-1.604-1.377 3.9 3.9 0 0 1-.62-2.102c-.004-.37-.004-.745-.054-1.11-.121-.892-.538-1.29-1.323-1.314-.806-.023-1.444.477-1.613 1.264-.013.06-.032.12-.05.19zM0 19.51s4-1.955 8.01-1.955l3.024-9.39c.113-.455.444-.763.817-.763s.704.308.817.763l3.024 9.39c4.75 0 8.01 1.955 8.01 1.955L16.895.903C16.7.353 16.371 0 15.927 0H7.775c-.443 0-.76.354-.968.903zm42.167-5.973c0 1.645-2.04 2.628-4.864 2.628-1.838 0-2.488-.457-2.488-1.417 0-1.006.807-1.486 2.645-1.486 1.659 0 3.071.023 4.707.229zm.023-2.035c-1.009-.228-2.533-.365-4.349-.365-5.29 0-7.778 1.257-7.778 4.182 0 3.04 1.704 4.206 5.649 4.206 3.34 0 5.604-.846 6.433-2.926h.134c-.022.503-.044 1.006-.044 1.394 0 1.075.179 1.166 1.053 1.166h4.125c-.224-.64-.359-2.445-.359-4 0-1.668.067-2.925.067-4.616 0-3.452-2.062-5.646-8.518-5.646-2.78 0-5.873.48-8.226 1.189.224.937.538 2.834.695 4.068 2.04-.96 4.931-1.371 7.173-1.371 3.093 0 3.945.708 3.945 2.148zm11.317 2.995c-.56.068-1.323.068-2.107.068-.83 0-1.592-.023-2.107-.091 0 .182-.023.388-.023.571 0 2.857 1.86 4.525 8.406 4.525 6.165 0 8.16-1.645 8.16-4.548 0-2.742-1.323-4.09-7.173-4.388-4.55-.206-4.954-.708-4.954-1.28 0-.663.582-1.005 3.631-1.005 3.16 0 4.012.434 4.012 1.348v.206a46 46 0 0 1 2.085-.046c.785 0 1.636.023 2.13.069 0-.206.022-.389.022-.549 0-3.36-2.78-4.457-8.16-4.457-6.052 0-8.092 1.486-8.092 4.388 0 2.606 1.637 4.229 7.443 4.48 4.281.137 4.752.617 4.752 1.28 0 .708-.695 1.028-3.699 1.028-3.452 0-4.326-.48-4.326-1.462zM73.234 2.452c-1.636 1.531-4.573 3.062-6.21 3.474.023.846.023 2.4.023 3.245l1.502.023a409 409 0 0 0-.045 4.891c0 3.04 1.592 5.325 6.546 5.325 2.085 0 3.474-.228 5.2-.594a44 44 0 0 1-.448-4.137c-1.031.343-2.331.526-3.766.526-1.995 0-2.802-.549-2.802-2.126 0-1.37 0-2.65.023-3.84 2.555.024 5.11.07 6.612.115a60 60 0 0 1 .09-4.045c-2.175.045-4.618.068-6.635.068.022-1.005.045-1.965.067-2.925zm13.388 6.034c.023-1.189.045-2.194.067-3.177h-4.505c.067 1.965.067 3.977.067 6.925s-.022 4.982-.067 6.925h5.156c-.09-1.371-.113-3.68-.113-5.645 0-3.108 1.256-4 4.102-4 1.323 0 2.265.16 3.094.457.022-1.165.246-3.428.38-4.434a10.1 10.1 0 0 0-2.935-.411c-2.444-.023-4.237.983-5.066 3.383zm22.445 3.657c0 2.49-1.794 3.656-4.618 3.656-2.802 0-4.595-1.097-4.595-3.656s1.815-3.52 4.595-3.52c2.802 0 4.618 1.028 4.618 3.52m4.684-.115c0-4.96-3.855-7.176-9.302-7.176-5.47 0-9.19 2.217-9.19 7.176 0 4.937 3.474 7.588 9.167 7.588 5.739 0 9.325-2.651 9.325-7.588" fill="currentColor"/></svg>