<?xml version="1.0" standalone="no"?><svg xmlns:xlink="http://www.w3.org/1999/xlink" xmlns="http://www.w3.org/2000/svg" viewBox="0 0 1000 750.0098561009264" preserveAspectRatio="xMaxYMax slice"><g transform="scale(1.5769761482357578)"><rect x="0" y="0" width="634.1333333333333" height="475.6" fill="#ffffff"/><rect x="0" y="0" width="79.27" height="79.27" fill="#3456e5"/><g transform="translate(0,0) scale(3.9635) rotate(0)"><rect width="20" height="2" fill="#ff88a4"/><rect y="4" width="20" height="2" fill="#ff88a4"/><rect y="8" width="20" height="2" fill="#ff88a4"/><rect y="12" width="20" height="2" fill="#ff88a4"/><rect y="16" width="20" height="2" fill="#ff88a4"/></g><rect x="79.27" y="0" width="79.27" height="79.27" fill="#dae0fa"/><g transform="translate(79.27,0) scale(3.9635) rotate(0)"><rect width="20" height="2" fill="#ff3968"/><rect y="4" width="20" height="2" fill="#ff3968"/><rect y="8" width="20" height="2" fill="#ff3968"/><rect y="12" width="20" height="2" fill="#ff3968"/><rect y="16" width="20" height="2" fill="#ff3968"/></g><rect x="158.53" y="0" width="79.27" height="79.27" fill="#254ae3"/><g transform="translate(158.53,0) scale(3.9635) rotate(0)"><rect width="20" height="2" fill="#3f5fe6"/><rect y="4" width="20" height="2" fill="#3f5fe6"/><rect y="8" width="20" height="2" fill="#3f5fe6"/><rect y="12" width="20" height="2" fill="#3f5fe6"/><rect y="16" width="20" height="2" fill="#3f5fe6"/></g><rect x="237.8" y="0" width="79.27" height="79.27" fill="#bcc8f6"/><g transform="translate(237.8,0) scale(3.9635) rotate(0)"><rect width="20" height="2" fill="#ff83a0"/><rect y="4" width="20" height="2" fill="#ff83a0"/><rect y="8" width="20" height="2" fill="#ff83a0"/><rect y="12" width="20" height="2" fill="#ff83a0"/><rect y="16" width="20" height="2" fill="#ff83a0"/></g><rect x="317.07" y="0" width="79.27" height="79.27" fill="#6d85ec"/><g transform="translate(317.07,0) scale(3.9635) rotate(0)"><rect width="20" height="2" fill="#9aabf2"/><rect y="4" width="20" height="2" fill="#9aabf2"/><rect y="8" width="20" height="2" fill="#9aabf2"/><rect y="12" width="20" height="2" fill="#9aabf2"/><rect y="16" width="20" height="2" fill="#9aabf2"/></g><rect x="396.33" y="0" width="79.27" height="79.27" fill="#ffb7c8"/><g transform="translate(396.33,0) scale(3.9635) rotate(0)"><rect width="20" height="2" fill="#4665e7"/><rect y="4" width="20" height="2" fill="#4665e7"/><rect y="8" width="20" height="2" fill="#4665e7"/><rect y="12" width="20" height="2" fill="#4665e7"/><rect y="16" width="20" height="2" fill="#4665e7"/></g><rect x="475.6" y="0" width="79.27" height="79.27" fill="#b9c5f6"/><g transform="translate(475.6,0) scale(3.9635) rotate(0)"><rect width="20" height="2" fill="#ff8faa"/><rect y="4" width="20" height="2" fill="#ff8faa"/><rect y="8" width="20" height="2" fill="#ff8faa"/><rect y="12" width="20" height="2" fill="#ff8faa"/><rect y="16" width="20" height="2" fill="#ff8faa"/></g><rect x="554.87" y="0" width="79.27" height="79.27" fill="#3a5be5"/><g transform="translate(554.87,0) scale(3.9635) rotate(0)"><rect width="20" height="2" fill="#ffc1d0"/><rect y="4" width="20" height="2" fill="#ffc1d0"/><rect y="8" width="20" height="2" fill="#ffc1d0"/><rect y="12" width="20" height="2" fill="#ffc1d0"/><rect y="16" width="20" height="2" fill="#ffc1d0"/></g><rect x="0" y="79.27" width="79.27" height="79.27" fill="#b8c4f6"/><g transform="translate(0,79.27) scale(3.9635) rotate(0)"><rect width="20" height="2" fill="#ffd0db"/><rect y="4" width="20" height="2" fill="#ffd0db"/><rect y="8" width="20" height="2" fill="#ffd0db"/><rect y="12" width="20" height="2" fill="#ffd0db"/><rect y="16" width="20" height="2" fill="#ffd0db"/></g><rect x="79.27" y="79.27" width="79.27" height="79.27" fill="#ffabbf"/><g transform="translate(79.27,79.27) scale(3.9635) rotate(0)"><rect width="20" height="2" fill="#cdd5f8"/><rect y="4" width="20" height="2" fill="#cdd5f8"/><rect y="8" width="20" height="2" fill="#cdd5f8"/><rect y="12" width="20" height="2" fill="#cdd5f8"/><rect y="16" width="20" height="2" fill="#cdd5f8"/></g><rect x="158.53" y="79.27" width="79.27" height="79.27" fill="#ff83a0"/><g transform="translate(158.53,79.27) scale(3.9635) rotate(0)"><rect width="20" height="2" fill="#8095ee"/><rect y="4" width="20" height="2" fill="#8095ee"/><rect y="8" width="20" height="2" fill="#8095ee"/><rect y="12" width="20" height="2" fill="#8095ee"/><rect y="16" width="20" height="2" fill="#8095ee"/></g><rect x="237.8" y="79.27" width="79.27" height="79.27" fill="#ffc9d6"/><g transform="translate(237.8,79.27) scale(3.9635) rotate(0)"><rect width="20" height="2" fill="#1a41e1"/><rect y="4" width="20" height="2" fill="#1a41e1"/><rect y="8" width="20" height="2" fill="#1a41e1"/><rect y="12" width="20" height="2" fill="#1a41e1"/><rect y="16" width="20" height="2" fill="#1a41e1"/></g><rect x="317.07" y="79.27" width="79.27" height="79.27" fill="#9cadf2"/><g transform="translate(317.07,79.27) scale(3.9635) rotate(0)"><rect width="20" height="2" fill="#ff819f"/><rect y="4" width="20" height="2" fill="#ff819f"/><rect y="8" width="20" height="2" fill="#ff819f"/><rect y="12" width="20" height="2" fill="#ff819f"/><rect y="16" width="20" height="2" fill="#ff819f"/></g><rect x="396.33" y="79.27" width="79.27" height="79.27" fill="#ffa7bc"/><g transform="translate(396.33,79.27) scale(3.9635) rotate(0)"><rect width="20" height="2" fill="#5470e9"/><rect y="4" width="20" height="2" fill="#5470e9"/><rect y="8" width="20" height="2" fill="#5470e9"/><rect y="12" width="20" height="2" fill="#5470e9"/><rect y="16" width="20" height="2" fill="#5470e9"/></g><rect x="475.6" y="79.27" width="79.27" height="79.27" fill="#fffcfd"/><g transform="translate(475.6,79.27) scale(3.9635) rotate(0)"><rect width="20" height="2" fill="#ffb3c5"/><rect y="4" width="20" height="2" fill="#ffb3c5"/><rect y="8" width="20" height="2" fill="#ffb3c5"/><rect y="12" width="20" height="2" fill="#ffb3c5"/><rect y="16" width="20" height="2" fill="#ffb3c5"/></g><rect x="554.87" y="79.27" width="79.27" height="79.27" fill="#fffdfd"/><g transform="translate(554.87,79.27) scale(3.9635) rotate(0)"><rect width="20" height="2" fill="#dae0fa"/><rect y="4" width="20" height="2" fill="#dae0fa"/><rect y="8" width="20" height="2" fill="#dae0fa"/><rect y="12" width="20" height="2" fill="#dae0fa"/><rect y="16" width="20" height="2" fill="#dae0fa"/></g><rect x="0" y="158.53" width="79.27" height="79.27" fill="#ffd8e1"/><g transform="translate(0,158.53) scale(3.9635) rotate(0)"><rect width="20" height="2" fill="#ff5880"/><rect y="4" width="20" height="2" fill="#ff5880"/><rect y="8" width="20" height="2" fill="#ff5880"/><rect y="12" width="20" height="2" fill="#ff5880"/><rect y="16" width="20" height="2" fill="#ff5880"/></g><rect x="79.27" y="158.53" width="79.27" height="79.27" fill="#4867e7"/><g transform="translate(79.27,158.53) scale(3.9635) rotate(0)"><rect width="20" height="2" fill="#ff416e"/><rect y="4" width="20" height="2" fill="#ff416e"/><rect y="8" width="20" height="2" fill="#ff416e"/><rect y="12" width="20" height="2" fill="#ff416e"/><rect y="16" width="20" height="2" fill="#ff416e"/></g><rect x="158.53" y="158.53" width="79.27" height="79.27" fill="#ff6086"/><g transform="translate(158.53,158.53) scale(3.9635) rotate(0)"><rect width="20" height="2" fill="#ffbfce"/><rect y="4" width="20" height="2" fill="#ffbfce"/><rect y="8" width="20" height="2" fill="#ffbfce"/><rect y="12" width="20" height="2" fill="#ffbfce"/><rect y="16" width="20" height="2" fill="#ffbfce"/></g><rect x="237.8" y="158.53" width="79.27" height="79.27" fill="#ffdbe3"/><g transform="translate(237.8,158.53) scale(3.9635) rotate(0)"><rect width="20" height="2" fill="#3c5de6"/><rect y="4" width="20" height="2" fill="#3c5de6"/><rect y="8" width="20" height="2" fill="#3c5de6"/><rect y="12" width="20" height="2" fill="#3c5de6"/><rect y="16" width="20" height="2" fill="#3c5de6"/></g><rect x="317.07" y="158.53" width="79.27" height="79.27" fill="#fff0f4"/><g transform="translate(317.07,158.53) scale(3.9635) rotate(0)"><rect width="20" height="2" fill="#4161e6"/><rect y="4" width="20" height="2" fill="#4161e6"/><rect y="8" width="20" height="2" fill="#4161e6"/><rect y="12" width="20" height="2" fill="#4161e6"/><rect y="16" width="20" height="2" fill="#4161e6"/></g><rect x="396.33" y="158.53" width="79.27" height="79.27" fill="#1c42e1"/><g transform="translate(396.33,158.53) scale(3.9635) rotate(0)"><rect width="20" height="2" fill="#d5dcfa"/><rect y="4" width="20" height="2" fill="#d5dcfa"/><rect y="8" width="20" height="2" fill="#d5dcfa"/><rect y="12" width="20" height="2" fill="#d5dcfa"/><rect y="16" width="20" height="2" fill="#d5dcfa"/></g><rect x="475.6" y="158.53" width="79.27" height="79.27" fill="#ff406d"/><g transform="translate(475.6,158.53) scale(3.9635) rotate(0)"><rect width="20" height="2" fill="#ffd0db"/><rect y="4" width="20" height="2" fill="#ffd0db"/><rect y="8" width="20" height="2" fill="#ffd0db"/><rect y="12" width="20" height="2" fill="#ffd0db"/><rect y="16" width="20" height="2" fill="#ffd0db"/></g><rect x="554.87" y="158.53" width="79.27" height="79.27" fill="#ffeef2"/><g transform="translate(554.87,158.53) scale(3.9635) rotate(0)"><rect width="20" height="2" fill="#aebcf4"/><rect y="4" width="20" height="2" fill="#aebcf4"/><rect y="8" width="20" height="2" fill="#aebcf4"/><rect y="12" width="20" height="2" fill="#aebcf4"/><rect y="16" width="20" height="2" fill="#aebcf4"/></g><rect x="0" y="237.8" width="79.27" height="79.27" fill="#ff7394"/><g transform="translate(0,237.8) scale(3.9635) rotate(0)"><rect width="20" height="2" fill="#f6f8fe"/><rect y="4" width="20" height="2" fill="#f6f8fe"/><rect y="8" width="20" height="2" fill="#f6f8fe"/><rect y="12" width="20" height="2" fill="#f6f8fe"/><rect y="16" width="20" height="2" fill="#f6f8fe"/></g><rect x="79.27" y="237.8" width="79.27" height="79.27" fill="#ffbbcb"/><g transform="translate(79.27,237.8) scale(3.9635) rotate(0)"><rect width="20" height="2" fill="#264be3"/><rect y="4" width="20" height="2" fill="#264be3"/><rect y="8" width="20" height="2" fill="#264be3"/><rect y="12" width="20" height="2" fill="#264be3"/><rect y="16" width="20" height="2" fill="#264be3"/></g><rect x="158.53" y="237.8" width="79.27" height="79.27" fill="#728aed"/><g transform="translate(158.53,237.8) scale(3.9635) rotate(0)"><rect width="20" height="2" fill="#6c85ec"/><rect y="4" width="20" height="2" fill="#6c85ec"/><rect y="8" width="20" height="2" fill="#6c85ec"/><rect y="12" width="20" height="2" fill="#6c85ec"/><rect y="16" width="20" height="2" fill="#6c85ec"/></g><rect x="237.8" y="237.8" width="79.27" height="79.27" fill="#aab8f4"/><g transform="translate(237.8,237.8) scale(3.9635) rotate(0)"><rect width="20" height="2" fill="#607bea"/><rect y="4" width="20" height="2" fill="#607bea"/><rect y="8" width="20" height="2" fill="#607bea"/><rect y="12" width="20" height="2" fill="#607bea"/><rect y="16" width="20" height="2" fill="#607bea"/></g><rect x="317.07" y="237.8" width="79.27" height="79.27" fill="#ffc9d6"/><g transform="translate(317.07,237.8) scale(3.9635) rotate(0)"><rect width="20" height="2" fill="#ff5b82"/><rect y="4" width="20" height="2" fill="#ff5b82"/><rect y="8" width="20" height="2" fill="#ff5b82"/><rect y="12" width="20" height="2" fill="#ff5b82"/><rect y="16" width="20" height="2" fill="#ff5b82"/></g><rect x="396.33" y="237.8" width="79.27" height="79.27" fill="#f2f4fd"/><g transform="translate(396.33,237.8) scale(3.9635) rotate(0)"><rect width="20" height="2" fill="#ffb4c6"/><rect y="4" width="20" height="2" fill="#ffb4c6"/><rect y="8" width="20" height="2" fill="#ffb4c6"/><rect y="12" width="20" height="2" fill="#ffb4c6"/><rect y="16" width="20" height="2" fill="#ffb4c6"/></g><rect x="475.6" y="237.8" width="79.27" height="79.27" fill="#ffb7c8"/><g transform="translate(475.6,237.8) scale(3.9635) rotate(0)"><rect width="20" height="2" fill="#99aaf2"/><rect y="4" width="20" height="2" fill="#99aaf2"/><rect y="8" width="20" height="2" fill="#99aaf2"/><rect y="12" width="20" height="2" fill="#99aaf2"/><rect y="16" width="20" height="2" fill="#99aaf2"/></g><rect x="554.87" y="237.8" width="79.27" height="79.27" fill="#ff6086"/><g transform="translate(554.87,237.8) scale(3.9635) rotate(0)"><rect width="20" height="2" fill="#ffdae3"/><rect y="4" width="20" height="2" fill="#ffdae3"/><rect y="8" width="20" height="2" fill="#ffdae3"/><rect y="12" width="20" height="2" fill="#ffdae3"/><rect y="16" width="20" height="2" fill="#ffdae3"/></g><rect x="0" y="317.07" width="79.27" height="79.27" fill="#ffbccc"/><g transform="translate(0,317.07) scale(3.9635) rotate(0)"><rect width="20" height="2" fill="#acbaf4"/><rect y="4" width="20" height="2" fill="#acbaf4"/><rect y="8" width="20" height="2" fill="#acbaf4"/><rect y="12" width="20" height="2" fill="#acbaf4"/><rect y="16" width="20" height="2" fill="#acbaf4"/></g><rect x="79.27" y="317.07" width="79.27" height="79.27" fill="#3154e4"/><g transform="translate(79.27,317.07) scale(3.9635) rotate(0)"><rect width="20" height="2" fill="#ff91ab"/><rect y="4" width="20" height="2" fill="#ff91ab"/><rect y="8" width="20" height="2" fill="#ff91ab"/><rect y="12" width="20" height="2" fill="#ff91ab"/><rect y="16" width="20" height="2" fill="#ff91ab"/></g><rect x="158.53" y="317.07" width="79.27" height="79.27" fill="#ffdce4"/><g transform="translate(158.53,317.07) scale(3.9635) rotate(0)"><rect width="20" height="2" fill="#c6d0f8"/><rect y="4" width="20" height="2" fill="#c6d0f8"/><rect y="8" width="20" height="2" fill="#c6d0f8"/><rect y="12" width="20" height="2" fill="#c6d0f8"/><rect y="16" width="20" height="2" fill="#c6d0f8"/></g><rect x="237.8" y="317.07" width="79.27" height="79.27" fill="#ffe8ed"/><g transform="translate(237.8,317.07) scale(3.9635) rotate(0)"><rect width="20" height="2" fill="#ff87a3"/><rect y="4" width="20" height="2" fill="#ff87a3"/><rect y="8" width="20" height="2" fill="#ff87a3"/><rect y="12" width="20" height="2" fill="#ff87a3"/><rect y="16" width="20" height="2" fill="#ff87a3"/></g><rect x="317.07" y="317.07" width="79.27" height="79.27" fill="#cfd7f9"/><g transform="translate(317.07,317.07) scale(3.9635) rotate(0)"><rect width="20" height="2" fill="#8fa2f1"/><rect y="4" width="20" height="2" fill="#8fa2f1"/><rect y="8" width="20" height="2" fill="#8fa2f1"/><rect y="12" width="20" height="2" fill="#8fa2f1"/><rect y="16" width="20" height="2" fill="#8fa2f1"/></g><rect x="396.33" y="317.07" width="79.27" height="79.27" fill="#fdfdff"/><g transform="translate(396.33,317.07) scale(3.9635) rotate(0)"><rect width="20" height="2" fill="#ff87a3"/><rect y="4" width="20" height="2" fill="#ff87a3"/><rect y="8" width="20" height="2" fill="#ff87a3"/><rect y="12" width="20" height="2" fill="#ff87a3"/><rect y="16" width="20" height="2" fill="#ff87a3"/></g><rect x="475.6" y="317.07" width="79.27" height="79.27" fill="#d6ddfa"/><g transform="translate(475.6,317.07) scale(3.9635) rotate(0)"><rect width="20" height="2" fill="#dbe1fa"/><rect y="4" width="20" height="2" fill="#dbe1fa"/><rect y="8" width="20" height="2" fill="#dbe1fa"/><rect y="12" width="20" height="2" fill="#dbe1fa"/><rect y="16" width="20" height="2" fill="#dbe1fa"/></g><rect x="554.87" y="317.07" width="79.27" height="79.27" fill="#6f88ec"/><g transform="translate(554.87,317.07) scale(3.9635) rotate(0)"><rect width="20" height="2" fill="#fff8fa"/><rect y="4" width="20" height="2" fill="#fff8fa"/><rect y="8" width="20" height="2" fill="#fff8fa"/><rect y="12" width="20" height="2" fill="#fff8fa"/><rect y="16" width="20" height="2" fill="#fff8fa"/></g><rect x="0" y="396.33" width="79.27" height="79.27" fill="#ffa1b7"/><g transform="translate(0,396.33) scale(3.9635) rotate(0)"><rect width="20" height="2" fill="#a4b3f3"/><rect y="4" width="20" height="2" fill="#a4b3f3"/><rect y="8" width="20" height="2" fill="#a4b3f3"/><rect y="12" width="20" height="2" fill="#a4b3f3"/><rect y="16" width="20" height="2" fill="#a4b3f3"/></g><rect x="79.27" y="396.33" width="79.27" height="79.27" fill="#ff9cb3"/><g transform="translate(79.27,396.33) scale(3.9635) rotate(0)"><rect width="20" height="2" fill="#ff9bb3"/><rect y="4" width="20" height="2" fill="#ff9bb3"/><rect y="8" width="20" height="2" fill="#ff9bb3"/><rect y="12" width="20" height="2" fill="#ff9bb3"/><rect y="16" width="20" height="2" fill="#ff9bb3"/></g><rect x="158.53" y="396.33" width="79.27" height="79.27" fill="#1c42e2"/><g transform="translate(158.53,396.33) scale(3.9635) rotate(0)"><rect width="20" height="2" fill="#ff567e"/><rect y="4" width="20" height="2" fill="#ff567e"/><rect y="8" width="20" height="2" fill="#ff567e"/><rect y="12" width="20" height="2" fill="#ff567e"/><rect y="16" width="20" height="2" fill="#ff567e"/></g><rect x="237.8" y="396.33" width="79.27" height="79.27" fill="#ffbbcc"/><g transform="translate(237.8,396.33) scale(3.9635) rotate(0)"><rect width="20" height="2" fill="#2449e3"/><rect y="4" width="20" height="2" fill="#2449e3"/><rect y="8" width="20" height="2" fill="#2449e3"/><rect y="12" width="20" height="2" fill="#2449e3"/><rect y="16" width="20" height="2" fill="#2449e3"/></g><rect x="317.07" y="396.33" width="79.27" height="79.27" fill="#e7ebfc"/><g transform="translate(317.07,396.33) scale(3.9635) rotate(0)"><rect width="20" height="2" fill="#1d44e2"/><rect y="4" width="20" height="2" fill="#1d44e2"/><rect y="8" width="20" height="2" fill="#1d44e2"/><rect y="12" width="20" height="2" fill="#1d44e2"/><rect y="16" width="20" height="2" fill="#1d44e2"/></g><rect x="396.33" y="396.33" width="79.27" height="79.27" fill="#ffd4de"/><g transform="translate(396.33,396.33) scale(3.9635) rotate(0)"><rect width="20" height="2" fill="#ffd3de"/><rect y="4" width="20" height="2" fill="#ffd3de"/><rect y="8" width="20" height="2" fill="#ffd3de"/><rect y="12" width="20" height="2" fill="#ffd3de"/><rect y="16" width="20" height="2" fill="#ffd3de"/></g><rect x="475.6" y="396.33" width="79.27" height="79.27" fill="#ff537c"/><g transform="translate(475.6,396.33) scale(3.9635) rotate(0)"><rect width="20" height="2" fill="#fff1f5"/><rect y="4" width="20" height="2" fill="#fff1f5"/><rect y="8" width="20" height="2" fill="#fff1f5"/><rect y="12" width="20" height="2" fill="#fff1f5"/><rect y="16" width="20" height="2" fill="#fff1f5"/></g><rect x="554.87" y="396.33" width="79.27" height="79.27" fill="#ff8faa"/><g transform="translate(554.87,396.33) scale(3.9635) rotate(0)"><rect width="20" height="2" fill="#ffd1dc"/><rect y="4" width="20" height="2" fill="#ffd1dc"/><rect y="8" width="20" height="2" fill="#ffd1dc"/><rect y="12" width="20" height="2" fill="#ffd1dc"/><rect y="16" width="20" height="2" fill="#ffd1dc"/></g></g></svg>