<svg xmlns="http://www.w3.org/2000/svg" xmlns:xlink="http://www.w3.org/1999/xlink" preserveAspectRatio="xMaxYMax slice" viewBox="0 0 1000 750"><path d="M0 0h1000v750H0z" fill="#fff"/><path d="M0 0h125v125H0z" fill="#3456e5"/><use xlink:href="#a" fill="#ff88a4"/><path d="M125 0h125v125H125z" fill="#dae0fa"/><use xlink:href="#b" fill="#ff3968"/><path d="M250 0h125v125H250z" fill="#254ae3"/><use xlink:href="#c" fill="#3f5fe6"/><path d="M375 0h125v125H375z" fill="#bcc8f6"/><use xlink:href="#d" fill="#ff83a0"/><path d="M500 0h125v125H500z" fill="#6d85ec"/><use xlink:href="#e" fill="#9aabf2"/><path d="M625 0h125v125H625z" fill="#ffb7c8"/><use xlink:href="#f" fill="#4665e7"/><path d="M750 0h125v125H750z" fill="#b9c5f6"/><use xlink:href="#g" fill="#ff8faa"/><path d="M875 0h125v125H875z" fill="#3a5be5"/><use xlink:href="#h" fill="#ffc1d0"/><path d="M0 125h125v125H0z" fill="#b8c4f6"/><path d="M0 125h125v13H0zm0 25h125v13H0zm0 25h125v13H0zm0 25h125v13H0zm0 25h125v13H0z" fill="#ffd0db"/><path d="M125 125h125v125H125z" fill="#ffabbf"/><path d="M125 125h125v13H125zm0 25h125v13H125zm0 25h125v13H125zm0 25h125v13H125zm0 25h125v13H125z" fill="#cdd5f8"/><path d="M250 125h125v125H250z" fill="#ff83a0"/><path d="M250 125h125v13H250zm0 25h125v13H250zm0 25h125v13H250zm0 25h125v13H250zm0 25h125v13H250z" fill="#8095ee"/><path d="M375 125h125v125H375z" fill="#ffc9d6"/><path d="M375 125h125v13H375zm0 25h125v13H375zm0 25h125v13H375zm0 25h125v13H375zm0 25h125v13H375z" fill="#1a41e1"/><path d="M500 125h125v125H500z" fill="#9cadf2"/><path d="M500 125h125v13H500zm0 25h125v13H500zm0 25h125v13H500zm0 25h125v13H500zm0 25h125v13H500z" fill="#ff819f"/><path d="M625 125h125v125H625z" fill="#ffa7bc"/><path d="M625 125h125v13H625zm0 25h125v13H625zm0 25h125v13H625zm0 25h125v13H625zm0 25h125v13H625z" fill="#5470e9"/><path d="M750 125h125v125H750z" fill="#fffcfd"/><path d="M750 125h125v13H750zm0 25h125v13H750zm0 25h125v13H750zm0 25h125v13H750zm0 25h125v13H750z" fill="#ffb3c5"/><path d="M875 125h125v125H875z" fill="#fffdfd"/><path d="M875 125h125v13H875zm0 25h125v13H875zm0 25h125v13H875zm0 25h125v13H875zm0 25h125v13H875z" fill="#dae0fa"/><path d="M0 250h125v125H0z" fill="#ffd8e1"/><path d="M0 250h125v12H0zm0 25h125v13H0zm0 25h125v13H0zm0 25h125v13H0zm0 25h125v13H0z" fill="#ff5880"/><path d="M125 250h125v125H125z" fill="#4867e7"/><path d="M125 250h125v12H125zm0 25h125v13H125zm0 25h125v13H125zm0 25h125v13H125zm0 25h125v13H125z" fill="#ff416e"/><path d="M250 250h125v125H250z" fill="#ff6086"/><path d="M250 250h125v12H250zm0 25h125v13H250zm0 25h125v13H250zm0 25h125v13H250zm0 25h125v13H250z" fill="#ffbfce"/><path d="M375 250h125v125H375z" fill="#ffdbe3"/><path d="M375 250h125v12H375zm0 25h125v13H375zm0 25h125v13H375zm0 25h125v13H375zm0 25h125v13H375z" fill="#3c5de6"/><path d="M500 250h125v125H500z" fill="#fff0f4"/><path d="M500 250h125v12H500zm0 25h125v13H500zm0 25h125v13H500zm0 25h125v13H500zm0 25h125v13H500z" fill="#4161e6"/><path d="M625 250h125v125H625z" fill="#1c42e1"/><path d="M625 250h125v12H625zm0 25h125v13H625zm0 25h125v13H625zm0 25h125v13H625zm0 25h125v13H625z" fill="#d5dcfa"/><path d="M750 250h125v125H750z" fill="#ff406d"/><path d="M750 250h125v12H750zm0 25h125v13H750zm0 25h125v13H750zm0 25h125v13H750zm0 25h125v13H750z" fill="#ffd0db"/><path d="M875 250h125v125H875z" fill="#ffeef2"/><path d="M875 250h125v12H875zm0 25h125v13H875zm0 25h125v13H875zm0 25h125v13H875zm0 25h125v13H875z" fill="#aebcf4"/><path d="M0 375h125v125H0z" fill="#ff7394"/><path d="M0 375h125v13H0zm0 25h125v13H0zm0 25h125v13H0zm0 25h125v13H0zm0 25h125v13H0z" fill="#f6f8fe"/><path d="M125 375h125v125H125z" fill="#ffbbcb"/><path d="M125 375h125v13H125zm0 25h125v13H125zm0 25h125v13H125zm0 25h125v13H125zm0 25h125v13H125z" fill="#264be3"/><path d="M250 375h125v125H250z" fill="#728aed"/><path d="M250 375h125v13H250zm0 25h125v13H250zm0 25h125v13H250zm0 25h125v13H250zm0 25h125v13H250z" fill="#6c85ec"/><path d="M375 375h125v125H375z" fill="#aab8f4"/><path d="M375 375h125v13H375zm0 25h125v13H375zm0 25h125v13H375zm0 25h125v13H375zm0 25h125v13H375z" fill="#607bea"/><path d="M500 375h125v125H500z" fill="#ffc9d6"/><path d="M500 375h125v13H500zm0 25h125v13H500zm0 25h125v13H500zm0 25h125v13H500zm0 25h125v13H500z" fill="#ff5b82"/><path d="M625 375h125v125H625z" fill="#f2f4fd"/><path d="M625 375h125v13H625zm0 25h125v13H625zm0 25h125v13H625zm0 25h125v13H625zm0 25h125v13H625z" fill="#ffb4c6"/><path d="M750 375h125v125H750z" fill="#ffb7c8"/><path d="M750 375h125v13H750zm0 25h125v13H750zm0 25h125v13H750zm0 25h125v13H750zm0 25h125v13H750z" fill="#99aaf2"/><path d="M875 375h125v125H875z" fill="#ff6086"/><path d="M875 375h125v13H875zm0 25h125v13H875zm0 25h125v13H875zm0 25h125v13H875zm0 25h125v13H875z" fill="#ffdae3"/><path d="M0 500h125v125H0z" fill="#ffbccc"/><use xlink:href="#a" fill="#acbaf4" y="500"/><path d="M125 500h125v125H125z" fill="#3154e4"/><use xlink:href="#b" fill="#ff91ab" y="500"/><path d="M250 500h125v125H250z" fill="#ffdce4"/><use xlink:href="#c" fill="#c6d0f8" y="500"/><path d="M375 500h125v125H375z" fill="#ffe8ed"/><use xlink:href="#d" fill="#ff87a3" y="500"/><path d="M500 500h125v125H500z" fill="#cfd7f9"/><use xlink:href="#e" fill="#8fa2f1" y="500"/><path d="M625 500h125v125H625z" fill="#fdfdff"/><use xlink:href="#f" fill="#ff87a3" y="500"/><path d="M750 500h125v125H750z" fill="#d6ddfa"/><use xlink:href="#g" fill="#dbe1fa" y="500"/><path d="M875 500h125v125H875z" fill="#6f88ec"/><use xlink:href="#h" fill="#fff8fa" y="500"/><path d="M0 625h125v125H0z" fill="#ffa1b7"/><path d="M0 625h125v13H0zm0 25h125v13H0zm0 25h125v13H0zm0 25h125v13H0zm0 25h125v13H0z" fill="#a4b3f3"/><path d="M125 625h125v125H125z" fill="#ff9cb3"/><path d="M125 625h125v13H125zm0 25h125v13H125zm0 25h125v13H125zm0 25h125v13H125zm0 25h125v13H125z" fill="#ff9bb3"/><path d="M250 625h125v125H250z" fill="#1c42e2"/><path d="M250 625h125v13H250zm0 25h125v13H250zm0 25h125v13H250zm0 25h125v13H250zm0 25h125v13H250z" fill="#ff567e"/><path d="M375 625h125v125H375z" fill="#fbc"/><path d="M375 625h125v13H375zm0 25h125v13H375zm0 25h125v13H375zm0 25h125v13H375zm0 25h125v13H375z" fill="#2449e3"/><path d="M500 625h125v125H500z" fill="#e7ebfc"/><path d="M500 625h125v13H500zm0 25h125v13H500zm0 25h125v13H500zm0 25h125v13H500zm0 25h125v13H500z" fill="#1d44e2"/><path d="M625 625h125v125H625z" fill="#ffd4de"/><path d="M625 625h125v13H625zm0 25h125v13H625zm0 25h125v13H625zm0 25h125v13H625zm0 25h125v13H625z" fill="#ffd3de"/><path d="M750 625h125v125H750z" fill="#ff537c"/><path d="M750 625h125v13H750zm0 25h125v13H750zm0 25h125v13H750zm0 25h125v13H750zm0 25h125v13H750z" fill="#fff1f5"/><path d="M875 625h125v125H875z" fill="#ff8faa"/><path d="M875 625h125v13H875zm0 25h125v13H875zm0 25h125v13H875zm0 25h125v13H875zm0 25h125v13H875z" fill="#ffd1dc"/><defs><path d="M0 0h125v13H0zm0 25h125v13H0zm0 25h125v13H0zm0 25h125v13H0zm0 25h125v13H0z" id="a"/><path d="M125 0h125v13H125zm0 25h125v13H125zm0 25h125v13H125zm0 25h125v13H125zm0 25h125v13H125z" id="b"/><path d="M250 0h125v13H250zm0 25h125v13H250zm0 25h125v13H250zm0 25h125v13H250zm0 25h125v13H250z" id="c"/><path d="M375 0h125v13H375zm0 25h125v13H375zm0 25h125v13H375zm0 25h125v13H375zm0 25h125v13H375z" id="d"/><path d="M500 0h125v13H500zm0 25h125v13H500zm0 25h125v13H500zm0 25h125v13H500zm0 25h125v13H500z" id="e"/><path d="M625 0h125v13H625zm0 25h125v13H625zm0 25h125v13H625zm0 25h125v13H625zm0 25h125v13H625z" id="f"/><path d="M750 0h125v13H750zm0 25h125v13H750zm0 25h125v13H750zm0 25h125v13H750zm0 25h125v13H750z" id="g"/><path d="M875 0h125v13H875zm0 25h125v13H875zm0 25h125v13H875zm0 25h125v13H875zm0 25h125v13H875z" id="h"/></defs></svg>