<?xml version="1.0" standalone="no"?><svg xmlns:xlink="http://www.w3.org/1999/xlink" xmlns="http://www.w3.org/2000/svg" viewBox="0 0 1000 583.3349686990992" preserveAspectRatio="xMaxYMax slice"><g transform="scale(1.226524324430402)"><rect x="0" y="0" width="815.3142857142858" height="475.6" fill="#ffffff"/><path d="M 27.18 40.769999999999996 A 13.59 13.59 0 0 1  40.769999999999996 27.18 L 27.18 40.769999999999996 A 13.59 13.59 0 0 0 40.769999999999996 27.18" fill="#4666e7"/><g transform="translate(89.68,21.74) scale(1.223) rotate(0)"><path d="M10 0L20 10L10 20L0 10L10 0Z" fill="#ff9ab2"/></g><path d="M 152.19 51.64 A 35.33 35.33 0 0 1  187.51999999999998 16.31 L 187.51999999999998 51.64" fill="#d2daf9"/><g transform="translate(214.7,10.87) scale(2.31) rotate(0)"><path d="M10 0L20 10L10 20L0 10L10 0Z" fill="#d0d8f9"/></g><g transform="translate(277.21,5.44) scale(2.8535) rotate(0)"><rect width="20" height="2" fill="#ffebf0"/><rect y="4" width="20" height="2" fill="#ffebf0"/><rect y="8" width="20" height="2" fill="#ffebf0"/><rect y="12" width="20" height="2" fill="#ffebf0"/><rect y="16" width="20" height="2" fill="#ffebf0"/></g><path d="M 339.71 0 A 67.94 67.94 0 0 1  407.65 67.94 L 339.71 0 A 67.94 67.94 0 0 0 407.65 67.94" fill="#f9fafe"/><g transform="translate(407.66,0) scale(3.397) rotate(0)"><path d="M10 0L20 10L10 20L0 10L10 0Z" fill="#bcc7f6"/></g><g transform="translate(475.6,0) scale(3.397) rotate(0)"><path d="M10 0H20V10L10 20H0V10L10 0Z" fill="#ff5a81"/></g><path d="M 548.98 5.44 A 57.07 57.07 0 0 1  606.0500000000001 62.51 L 548.98 5.44 A 57.07 57.07 0 0 0 606.0500000000001 62.51" fill="#7b91ee"/><g transform="translate(622.36,10.87) scale(2.31) rotate(0)"><rect width="2" height="20" fill="#ff8faa"/><rect x="4" width="2" height="20" fill="#ff8faa"/><rect x="8" width="2" height="20" fill="#ff8faa"/><rect x="12" width="2" height="20" fill="#ff8faa"/><rect x="16" width="2" height="20" fill="#ff8faa"/></g><g transform="translate(695.73,16.31) scale(1.7665) rotate(0)"><path d="M10 0L20 10L10 20L0 10L10 0Z" fill="#7e94ee"/></g><g transform="translate(769.11,21.74) scale(1.223) rotate(0)"><path d="M10 0L20 10L10 20L0 10L10 0Z" fill="#4161e6"/></g><path d="M 27.18 95.12 A 13.59 13.59 0 0 1  40.769999999999996 108.71000000000001 L 27.18 95.12 A 13.59 13.59 0 0 0 40.769999999999996 108.71000000000001" fill="#657feb"/><g transform="translate(89.68,89.68) scale(1.223) rotate(0)"><path d="M10 0H20L0 20V10L10 0Z" fill="#ff3a69"/><path d="M20 10V20H10L20 10Z" fill="#ff3a69"/></g><g transform="translate(152.19,84.25) scale(1.7665) rotate(0)"><path d="M10 0L20 10L10 20L0 10L10 0Z" fill="#ff87a3"/></g><g transform="translate(214.7,78.81) scale(2.31) rotate(0)"><path d="M5 0H10L5 5L0 10V5L5 0Z" fill="#f1f3fd"/><path d="M20 15V20H15L20 15Z" fill="#f1f3fd"/><path d="M20 5V10L15 15L10 20H5L20 5Z" fill="#f1f3fd"/><path d="M15 0H20L5 15.0002L0 20.0002V15.0002L15 0Z" fill="#f1f3fd"/></g><g transform="translate(277.21,73.38) scale(2.8535) rotate(0)"><path d="M10 0L20 10L10 20L0 10L10 0Z" fill="#ffaec1"/></g><g transform="translate(339.71,67.94) scale(3.397) rotate(0)"><path d="M5 0H10L5 5L0 10V5L5 0Z" fill="#1c43e2"/><path d="M20 15V20H15L20 15Z" fill="#1c43e2"/><path d="M20 5V10L15 15L10 20H5L20 5Z" fill="#1c43e2"/><path d="M15 0H20L5 15.0002L0 20.0002V15.0002L15 0Z" fill="#1c43e2"/></g><g transform="translate(407.66,67.94) scale(3.397) rotate(0)"><path d="M10 0L20 10L10 20L0 10L10 0Z" fill="#5e79ea"/></g><g transform="translate(475.6,67.94) scale(3.397) rotate(0)"><path d="M10 0L20 10L10 20L0 10L10 0Z" fill="#4867e7"/></g><g transform="translate(548.98,73.38) scale(2.8535) rotate(0)"><path d="M10 0H20L0 20V10L10 0Z" fill="#2449e3"/><path d="M20 10V20H10L20 10Z" fill="#2449e3"/></g><g transform="translate(622.36,78.81) scale(2.31) rotate(0)"><path d="M5 0H10L5 5L0 10V5L5 0Z" fill="#ffe4eb"/><path d="M20 15V20H15L20 15Z" fill="#ffe4eb"/><path d="M20 5V10L15 15L10 20H5L20 5Z" fill="#ffe4eb"/><path d="M15 0H20L5 15.0002L0 20.0002V15.0002L15 0Z" fill="#ffe4eb"/></g><g transform="translate(695.73,84.25) scale(1.7665) rotate(0)"><path d="M10 0H20L0 20V10L10 0Z" fill="#ffb5c7"/><path d="M20 10V20H10L20 10Z" fill="#ffb5c7"/></g><path d="M 769.11 114.14000000000001 A 24.46 24.46 0 0 1  793.57 89.68 L 769.11 114.14000000000001 A 24.46 24.46 0 0 0 793.57 89.68" fill="#ffe3ea"/><g transform="translate(27.18,163.06) scale(0.6795) rotate(0)"><path d="M10 0L20 10L10 20L0 10L10 0Z" fill="#ff90aa"/></g><g transform="translate(89.68,157.63) scale(1.223) rotate(0)"><path d="M10 0H20V10L10 20H0V10L10 0Z" fill="#5a76ea"/></g><g transform="translate(152.19,152.19) scale(1.7665) rotate(0)"><path d="M5 0H10L5 5L0 10V5L5 0Z" fill="#ff3565"/><path d="M20 15V20H15L20 15Z" fill="#ff3565"/><path d="M20 5V10L15 15L10 20H5L20 5Z" fill="#ff3565"/><path d="M15 0H20L5 15.0002L0 20.0002V15.0002L15 0Z" fill="#ff3565"/></g><g transform="translate(214.7,146.76) scale(2.31) rotate(0)"><rect width="2" height="20" fill="#ffbdcd"/><rect x="4" width="2" height="20" fill="#ffbdcd"/><rect x="8" width="2" height="20" fill="#ffbdcd"/><rect x="12" width="2" height="20" fill="#ffbdcd"/><rect x="16" width="2" height="20" fill="#ffbdcd"/></g><path d="M 277.21 198.39 A 57.07 57.07 0 0 1  334.28 141.32 L 277.21 198.39 A 57.07 57.07 0 0 0 334.28 141.32" fill="#ff7495"/><g transform="translate(339.71,135.89) scale(3.397) rotate(0)"><rect width="20" height="2" fill="#ff98b0"/><rect y="4" width="20" height="2" fill="#ff98b0"/><rect y="8" width="20" height="2" fill="#ff98b0"/><rect y="12" width="20" height="2" fill="#ff98b0"/><rect y="16" width="20" height="2" fill="#ff98b0"/></g><g transform="translate(407.66,135.89) scale(3.397) rotate(0)"><rect width="2" height="20" fill="#adbbf4"/><rect x="4" width="2" height="20" fill="#adbbf4"/><rect x="8" width="2" height="20" fill="#adbbf4"/><rect x="12" width="2" height="20" fill="#adbbf4"/><rect x="16" width="2" height="20" fill="#adbbf4"/></g><path d="M 475.6 135.89 A 67.94 67.94 0 0 1  543.54 203.82999999999998 L 475.6 135.89 A 67.94 67.94 0 0 0 543.54 203.82999999999998" fill="#ff97af"/><g transform="translate(548.98,141.32) scale(2.8535) rotate(0)"><rect width="20" height="2" fill="#dde3fb"/><rect y="4" width="20" height="2" fill="#dde3fb"/><rect y="8" width="20" height="2" fill="#dde3fb"/><rect y="12" width="20" height="2" fill="#dde3fb"/><rect y="16" width="20" height="2" fill="#dde3fb"/></g><g transform="translate(622.36,146.76) scale(2.31) rotate(0)"><path d="M5 0H10L5 5L0 10V5L5 0Z" fill="#ff7596"/><path d="M20 15V20H15L20 15Z" fill="#ff7596"/><path d="M20 5V10L15 15L10 20H5L20 5Z" fill="#ff7596"/><path d="M15 0H20L5 15.0002L0 20.0002V15.0002L15 0Z" fill="#ff7596"/></g><g transform="translate(695.73,152.19) scale(1.7665) rotate(0)"><rect width="20" height="2" fill="#8a9ef0"/><rect y="4" width="20" height="2" fill="#8a9ef0"/><rect y="8" width="20" height="2" fill="#8a9ef0"/><rect y="12" width="20" height="2" fill="#8a9ef0"/><rect y="16" width="20" height="2" fill="#8a9ef0"/></g><g transform="translate(769.11,157.63) scale(1.223) rotate(0)"><rect width="20" height="2" fill="#ff89a5"/><rect y="4" width="20" height="2" fill="#ff89a5"/><rect y="8" width="20" height="2" fill="#ff89a5"/><rect y="12" width="20" height="2" fill="#ff89a5"/><rect y="16" width="20" height="2" fill="#ff89a5"/></g><g transform="translate(27.18,231.01) scale(0.6795) rotate(0)"><path d="M5 0H10L5 5L0 10V5L5 0Z" fill="#ff9eb5"/><path d="M20 15V20H15L20 15Z" fill="#ff9eb5"/><path d="M20 5V10L15 15L10 20H5L20 5Z" fill="#ff9eb5"/><path d="M15 0H20L5 15.0002L0 20.0002V15.0002L15 0Z" fill="#ff9eb5"/></g><g transform="translate(89.68,225.57) scale(1.223) rotate(0)"><path d="M10 0H20V10L10 20H0V10L10 0Z" fill="#bdc8f6"/></g><path d="M 152.19 220.13 A 35.33 35.33 0 0 1 187.51999999999998 255.45999999999998 L 152.19 255.45999999999998" fill="#adbbf4"/><g transform="translate(214.7,214.7) scale(2.31) rotate(0)"><path d="M10 0L20 10L10 20L0 10L10 0Z" fill="#9aabf2"/></g><path d="M 277.21 266.33 A 57.07 57.07 0 0 1  334.28 209.26 L 277.21 266.33 A 57.07 57.07 0 0 0 334.28 209.26" fill="#ffbecd"/><g transform="translate(339.71,203.83) scale(3.397) rotate(0)"><path d="M10 0H20L0 20V10L10 0Z" fill="#fff0f3"/><path d="M20 10V20H10L20 10Z" fill="#fff0f3"/></g><g transform="translate(407.66,203.83) scale(3.397) rotate(0)"><path d="M5 0H10L5 5L0 10V5L5 0Z" fill="#617cea"/><path d="M20 15V20H15L20 15Z" fill="#617cea"/><path d="M20 5V10L15 15L10 20H5L20 5Z" fill="#617cea"/><path d="M15 0H20L5 15.0002L0 20.0002V15.0002L15 0Z" fill="#617cea"/></g><g transform="translate(475.6,203.83) scale(3.397) rotate(0)"><path d="M10 0H20L0 20V10L10 0Z" fill="#2f52e4"/><path d="M20 10V20H10L20 10Z" fill="#2f52e4"/></g><path d="M 548.98 266.33 A 57.07 57.07 0 0 1  606.0500000000001 209.26 L 548.98 266.33 A 57.07 57.07 0 0 0 606.0500000000001 209.26" fill="#ff5b82"/><g transform="translate(622.36,214.7) scale(2.31) rotate(0)"><rect width="20" height="2" fill="#ff7999"/><rect y="4" width="20" height="2" fill="#ff7999"/><rect y="8" width="20" height="2" fill="#ff7999"/><rect y="12" width="20" height="2" fill="#ff7999"/><rect y="16" width="20" height="2" fill="#ff7999"/></g><g transform="translate(695.73,220.13) scale(1.7665) rotate(0)"><rect width="20" height="2" fill="#ff7596"/><rect y="4" width="20" height="2" fill="#ff7596"/><rect y="8" width="20" height="2" fill="#ff7596"/><rect y="12" width="20" height="2" fill="#ff7596"/><rect y="16" width="20" height="2" fill="#ff7596"/></g><path d="M 769.11 250.03 A 24.46 24.46 0 0 1  793.57 225.57 L 769.11 250.03 A 24.46 24.46 0 0 0 793.57 225.57" fill="#ff85a2"/><g transform="translate(27.18,298.95) scale(0.6795) rotate(0)"><path d="M10 0H20V10L10 20H0V10L10 0Z" fill="#ff3565"/></g><path d="M 89.68 317.96999999999997 A 24.46 24.46 0 0 1  114.14000000000001 293.51 L 114.14000000000001 317.96999999999997" fill="#ff4a75"/><path d="M 152.19 323.40999999999997 A 35.33 35.33 0 0 1  187.51999999999998 288.08 L 152.19 323.40999999999997 A 35.33 35.33 0 0 0 187.51999999999998 288.08" fill="#d8dffa"/><path d="M 214.7 328.84 A 46.2 46.2 0 0 1  260.9 282.64 L 214.7 328.84 A 46.2 46.2 0 0 0 260.9 282.64" fill="#3355e4"/><path d="M 277.21 334.28 A 57.07 57.07 0 0 1  334.28 277.21 L 277.21 334.28 A 57.07 57.07 0 0 0 334.28 277.21" fill="#dee4fb"/><g transform="translate(339.71,271.77) scale(3.397) rotate(0)"><path d="M5 0H10L5 5L0 10V5L5 0Z" fill="#ff86a3"/><path d="M20 15V20H15L20 15Z" fill="#ff86a3"/><path d="M20 5V10L15 15L10 20H5L20 5Z" fill="#ff86a3"/><path d="M15 0H20L5 15.0002L0 20.0002V15.0002L15 0Z" fill="#ff86a3"/></g><g transform="translate(407.66,271.77) scale(3.397) rotate(0)"><path d="M5 0H10L5 5L0 10V5L5 0Z" fill="#c1cbf7"/><path d="M20 15V20H15L20 15Z" fill="#c1cbf7"/><path d="M20 5V10L15 15L10 20H5L20 5Z" fill="#c1cbf7"/><path d="M15 0H20L5 15.0002L0 20.0002V15.0002L15 0Z" fill="#c1cbf7"/></g><g transform="translate(475.6,271.77) scale(3.397) rotate(0)"><rect width="2" height="20" fill="#eff2fd"/><rect x="4" width="2" height="20" fill="#eff2fd"/><rect x="8" width="2" height="20" fill="#eff2fd"/><rect x="12" width="2" height="20" fill="#eff2fd"/><rect x="16" width="2" height="20" fill="#eff2fd"/></g><g transform="translate(548.98,277.21) scale(2.8535) rotate(0)"><rect width="2" height="20" fill="#ff658a"/><rect x="4" width="2" height="20" fill="#ff658a"/><rect x="8" width="2" height="20" fill="#ff658a"/><rect x="12" width="2" height="20" fill="#ff658a"/><rect x="16" width="2" height="20" fill="#ff658a"/></g><g transform="translate(622.36,282.64) scale(2.31) rotate(0)"><rect width="20" height="2" fill="#ffa6bb"/><rect y="4" width="20" height="2" fill="#ffa6bb"/><rect y="8" width="20" height="2" fill="#ffa6bb"/><rect y="12" width="20" height="2" fill="#ffa6bb"/><rect y="16" width="20" height="2" fill="#ffa6bb"/></g><g transform="translate(695.73,288.08) scale(1.7665) rotate(0)"><rect width="2" height="20" fill="#f0f2fd"/><rect x="4" width="2" height="20" fill="#f0f2fd"/><rect x="8" width="2" height="20" fill="#f0f2fd"/><rect x="12" width="2" height="20" fill="#f0f2fd"/><rect x="16" width="2" height="20" fill="#f0f2fd"/></g><g transform="translate(769.11,293.51) scale(1.223) rotate(0)"><rect width="2" height="20" fill="#ffadc0"/><rect x="4" width="2" height="20" fill="#ffadc0"/><rect x="8" width="2" height="20" fill="#ffadc0"/><rect x="12" width="2" height="20" fill="#ffadc0"/><rect x="16" width="2" height="20" fill="#ffadc0"/></g><path d="M 27.18 366.89 A 13.59 13.59 0 0 1  40.769999999999996 380.47999999999996 L 27.18 366.89 A 13.59 13.59 0 0 0 40.769999999999996 380.47999999999996" fill="#fff2f5"/><path d="M 89.68 361.46 A 24.46 24.46 0 0 1  114.14000000000001 385.91999999999996 L 89.68 361.46 A 24.46 24.46 0 0 0 114.14000000000001 385.91999999999996" fill="#eef1fd"/><g transform="translate(152.19,356.02) scale(1.7665) rotate(0)"><path d="M10 0H20L0 20V10L10 0Z" fill="#ff99b1"/><path d="M20 10V20H10L20 10Z" fill="#ff99b1"/></g><path d="M 214.7 350.59 A 46.2 46.2 0 0 1  260.9 396.78999999999996 L 214.7 350.59 A 46.2 46.2 0 0 0 260.9 396.78999999999996" fill="#ffd2dd"/><path d="M 277.21 345.15 A 57.07 57.07 0 0 1  334.28 402.21999999999997 L 277.21 345.15 A 57.07 57.07 0 0 0 334.28 402.21999999999997" fill="#274be3"/><path d="M 339.71 339.71 A 67.94 67.94 0 0 1 407.65 407.65 L 339.71 407.65" fill="#ff7898"/><path d="M 407.66 339.71 A 67.94 67.94 0 0 1  475.6 407.65 L 407.66 339.71 A 67.94 67.94 0 0 0 475.6 407.65" fill="#ffdde5"/><g transform="translate(475.6,339.71) scale(3.397) rotate(0)"><path d="M5 0H10L5 5L0 10V5L5 0Z" fill="#ff3c6b"/><path d="M20 15V20H15L20 15Z" fill="#ff3c6b"/><path d="M20 5V10L15 15L10 20H5L20 5Z" fill="#ff3c6b"/><path d="M15 0H20L5 15.0002L0 20.0002V15.0002L15 0Z" fill="#ff3c6b"/></g><path d="M 548.98 345.15 A 57.07 57.07 0 0 1  606.0500000000001 402.21999999999997 L 548.98 345.15 A 57.07 57.07 0 0 0 606.0500000000001 402.21999999999997" fill="#d4dbf9"/><path d="M 622.36 350.59 A 46.2 46.2 0 0 0 668.5600000000001 396.78999999999996 L 668.5600000000001 350.59" fill="#ff6388"/><g transform="translate(695.73,356.02) scale(1.7665) rotate(0)"><rect width="2" height="20" fill="#264be3"/><rect x="4" width="2" height="20" fill="#264be3"/><rect x="8" width="2" height="20" fill="#264be3"/><rect x="12" width="2" height="20" fill="#264be3"/><rect x="16" width="2" height="20" fill="#264be3"/></g><path d="M 769.11 361.46 A 24.46 24.46 0 0 1  793.57 385.91999999999996 L 769.11 361.46 A 24.46 24.46 0 0 0 793.57 385.91999999999996" fill="#2e52e4"/><g transform="translate(27.18,434.83) scale(0.6795) rotate(0)"><path d="M10 0H20L0 20V10L10 0Z" fill="#ffe7ed"/><path d="M20 10V20H10L20 10Z" fill="#ffe7ed"/></g><g transform="translate(89.68,429.4) scale(1.223) rotate(0)"><path d="M10 0H20L0 20V10L10 0Z" fill="#ff7697"/><path d="M20 10V20H10L20 10Z" fill="#ff7697"/></g><g transform="translate(152.19,423.96) scale(1.7665) rotate(0)"><path d="M10 0H20V10L10 20H0V10L10 0Z" fill="#4060e6"/></g><g transform="translate(214.7,418.53) scale(2.31) rotate(0)"><rect width="2" height="20" fill="#f5f7fe"/><rect x="4" width="2" height="20" fill="#f5f7fe"/><rect x="8" width="2" height="20" fill="#f5f7fe"/><rect x="12" width="2" height="20" fill="#f5f7fe"/><rect x="16" width="2" height="20" fill="#f5f7fe"/></g><path d="M 277.21 470.15999999999997 A 57.07 57.07 0 0 1  334.28 413.09 L 277.21 470.15999999999997 A 57.07 57.07 0 0 0 334.28 413.09" fill="#d7defa"/><path d="M 339.71 475.6 A 67.94 67.94 0 0 1  407.65 407.66 L 407.65 475.6" fill="#ff9fb6"/><g transform="translate(407.66,407.66) scale(3.397) rotate(0)"><rect width="2" height="20" fill="#3c5de6"/><rect x="4" width="2" height="20" fill="#3c5de6"/><rect x="8" width="2" height="20" fill="#3c5de6"/><rect x="12" width="2" height="20" fill="#3c5de6"/><rect x="16" width="2" height="20" fill="#3c5de6"/></g><g transform="translate(475.6,407.66) scale(3.397) rotate(0)"><path d="M10 0H20V10L10 20H0V10L10 0Z" fill="#ff7e9d"/></g><g transform="translate(548.98,413.09) scale(2.8535) rotate(0)"><path d="M10 0L20 10L10 20L0 10L10 0Z" fill="#bfcaf7"/></g><g transform="translate(622.36,418.53) scale(2.31) rotate(0)"><path d="M10 0L20 10L10 20L0 10L10 0Z" fill="#e2e7fb"/></g><g transform="translate(695.73,423.96) scale(1.7665) rotate(0)"><path d="M5 0H10L5 5L0 10V5L5 0Z" fill="#a1b1f3"/><path d="M20 15V20H15L20 15Z" fill="#a1b1f3"/><path d="M20 5V10L15 15L10 20H5L20 5Z" fill="#a1b1f3"/><path d="M15 0H20L5 15.0002L0 20.0002V15.0002L15 0Z" fill="#a1b1f3"/></g><g transform="translate(769.11,429.4) scale(1.223) rotate(0)"><path d="M5 0H10L5 5L0 10V5L5 0Z" fill="#ff5d83"/><path d="M20 15V20H15L20 15Z" fill="#ff5d83"/><path d="M20 5V10L15 15L10 20H5L20 5Z" fill="#ff5d83"/><path d="M15 0H20L5 15.0002L0 20.0002V15.0002L15 0Z" fill="#ff5d83"/></g></g></svg>