<?xml version="1.0" standalone="no"?><svg xmlns:xlink="http://www.w3.org/1999/xlink" xmlns="http://www.w3.org/2000/svg" viewBox="0 0 1000 166.66341030195383" preserveAspectRatio="xMaxYMax slice"><g transform="scale(0.8880994671403197)"><rect x="0" y="0" width="1126" height="187.66666666666666" fill="#ffffff"/><rect x="75.06666666666666" y="75.06666666666666" width="37.53333333333333" height="37.53333333333333" fill="#ffffff"/><g transform="translate(75.07,75.07) scale(0.9385) rotate(0)"><path d="M10 5L5 0L0 5L5 10L0 15L5 20L10 15L15 20L20 15L15 10L20 5L15 0L10 5Z" fill="#bcc7f6"/></g><circle cx="103.215" cy="84.455" r="9.385" fill="#ff3a69"/><path d="M 75.07 93.83 A 18.77 18.77 0 0 1  93.83999999999999 112.6 L 75.07 93.83 A 18.77 18.77 0 0 0 93.83999999999999 112.6" fill="#dce2fa"/><path d="M 93.83 112.6 A 18.77 18.77 0 0 1  112.6 93.83 L 93.83 112.6 A 18.77 18.77 0 0 0 112.6 93.83" fill="#ffdfe6"/><rect x="232.70666666666665" y="45.04" width="97.58666666666666" height="97.58666666666666" fill="#ffffff"/><g transform="translate(232.71,45.04) scale(2.4395) rotate(0)"><path fill-rule="evenodd" clip-rule="evenodd" d="M10 20C15.5228 20 20 15.5228 20 10C20 4.47715 15.5228 0 10 0C4.47715 0 0 4.47715 0 10C0 15.5228 4.47715 20 10 20ZM10 17C13.866 17 17 13.866 17 10C17 6.13401 13.866 3 10 3C6.13401 3 3 6.13401 3 10C3 13.866 6.13401 17 10 17Z" fill="#2a4ee3"/></g><rect x="281.5" y="45.04" width="48.79" height="48.79" fill="#607bea"/><polygon points="232.71,93.83 281.5,93.83 281.5,142.62" fill="#ff3b6a"/><g transform="translate(281.5,93.83) scale(2.4395) rotate(0)"><rect width="20" height="2" fill="#ff4975"/><rect y="4" width="20" height="2" fill="#ff4975"/><rect y="8" width="20" height="2" fill="#ff4975"/><rect y="12" width="20" height="2" fill="#ff4975"/><rect y="16" width="20" height="2" fill="#ff4975"/></g><rect x="390.34666666666664" y="15.013333333333334" width="157.64" height="157.64" fill="#ffffff"/><g transform="translate(390.35,15.01) scale(3.941) rotate(0)"><path d="M10 0H20L0 20V10L10 0Z" fill="#ffa6bb"/><path d="M20 10V20H10L20 10Z" fill="#ffa6bb"/></g><g transform="translate(469.17,15.01) scale(3.941) rotate(0)"><rect width="20" height="10" fill="#ffaec1"/></g><path d="M 390.35 172.64999999999998 A 78.82 78.82 0 0 1  469.17 93.83 L 469.17 172.64999999999998" fill="#ffc5d3"/><polygon points="469.17,93.83 547.99,172.64999999999998 469.17,172.64999999999998" fill="#ff3666"/><rect x="563" y="0" width="187.66666666666666" height="187.66666666666666" fill="#ffffff"/><g transform="translate(563,0) scale(4.6915) rotate(0)"><rect width="2" height="20" fill="#ffb0c3"/><rect x="4" width="2" height="20" fill="#ffb0c3"/><rect x="8" width="2" height="20" fill="#ffb0c3"/><rect x="12" width="2" height="20" fill="#ffb0c3"/><rect x="16" width="2" height="20" fill="#ffb0c3"/></g><polygon points="750.6600000000001,0 750.6600000000001,93.83 656.83,93.83" fill="#6b84ec"/><circle cx="609.915" cy="140.745" r="46.915" fill="#ff6a8e"/><g transform="translate(656.83,93.83) scale(4.6915) rotate(0)"><rect width="20" height="10" fill="#395ae5"/></g><rect x="765.68" y="15.013333333333334" width="157.64" height="157.64" fill="#ffffff"/><g transform="translate(765.68,15.01) scale(3.941) rotate(0)"><path d="M13 0H20V7L7 20H0V13L13 0Z" fill="#ffe0e7"/></g><path d="M 844.5 93.83 A 78.82 78.82 0 0 0 923.3199999999999 15.01 L 844.5 15.01" fill="#c2ccf7"/><rect x="765.68" y="93.83" width="78.82" height="78.82" fill="#3557e5"/><g transform="translate(844.5,93.83) scale(3.941) rotate(0)"><path d="M10 5L5 0L0 5L5 10L0 15L5 20L10 15L15 20L20 15L15 10L20 5L15 0L10 5Z" fill="#ff6287"/></g><rect x="983.3733333333332" y="45.04" width="97.58666666666666" height="97.58666666666666" fill="#ffffff"/><g transform="translate(983.37,45.04) scale(2.4395) rotate(0)"><path d="M10 0H20V10L10 20H0V10L10 0Z" fill="#ffa0b6"/></g><g transform="translate(1032.17,45.04) scale(2.4395) rotate(0)"><path d="M10 1L12.2451 7.90983H19.5106L13.6327 12.1803L15.8779 19.0902L10 14.8197L4.12215 19.0902L6.36729 12.1803L0.489441 7.90983H7.75487L10 1Z" fill="#ff809e"/></g><g transform="translate(983.37,93.83) scale(2.4395) rotate(0)"><path d="M13 0H20V7L7 20H0V13L13 0Z" fill="#1a40e1"/></g><g transform="translate(1032.17,93.83) scale(2.4395) rotate(0)"><path d="M10 0H20L0 20V10L10 0Z" fill="#4060e6"/><path d="M20 10V20H10L20 10Z" fill="#4060e6"/></g></g></svg>