<?xml version="1.0" standalone="no"?><svg xmlns:xlink="http://www.w3.org/1999/xlink" xmlns="http://www.w3.org/2000/svg" viewBox="0 0 1000 428.57657787550016" preserveAspectRatio="xMaxYMax slice"><g transform="scale(0.9011282125220776)"><rect x="0" y="0" width="1109.7333333333333" height="475.6" fill="#ffffff"/><g transform="translate(0,0) scale(7.9265) rotate(0)"><path d="M10 0L20 10L10 20L0 10L10 0Z" fill="#f6f8fe"/></g><rect x="158.53333333333333" y="0" width="158.53333333333333" height="158.53333333333333" fill="#ffffff"/><path d="M 158.53 0 A 79.27 79.27 0 0 1  237.8 79.27 L 158.53 0 A 79.27 79.27 0 0 0 237.8 79.27" fill="#ffa0b7"/><g transform="translate(237.8,0) scale(3.9635) rotate(0)"><path d="M5 0H10L5 5L0 10V5L5 0Z" fill="#ced6f9"/><path d="M20 15V20H15L20 15Z" fill="#ced6f9"/><path d="M20 5V10L15 15L10 20H5L20 5Z" fill="#ced6f9"/><path d="M15 0H20L5 15.0002L0 20.0002V15.0002L15 0Z" fill="#ced6f9"/></g><path d="M 158.53 79.27 A 79.27 79.27 0 0 1  237.8 158.54 L 158.53 79.27 A 79.27 79.27 0 0 0 237.8 158.54" fill="#4060e6"/><path d="M 237.8 79.27 A 79.27 79.27 0 0 1 317.07 158.54 L 237.8 158.54" fill="#284ce3"/><rect x="317.06666666666666" y="0" width="158.53333333333333" height="158.53333333333333" fill="#ffffff"/><g transform="translate(317.07,0) scale(3.9635) rotate(0)"><rect width="2" height="20" fill="#d0d8f9"/><rect x="4" width="2" height="20" fill="#d0d8f9"/><rect x="8" width="2" height="20" fill="#d0d8f9"/><rect x="12" width="2" height="20" fill="#d0d8f9"/><rect x="16" width="2" height="20" fill="#d0d8f9"/></g><g transform="translate(396.33,0) scale(3.9635) rotate(0)"><path d="M10 0H20L0 20V10L10 0Z" fill="#fefeff"/><path d="M20 10V20H10L20 10Z" fill="#fefeff"/></g><g transform="translate(317.07,79.27) scale(3.9635) rotate(0)"><rect width="20" height="2" fill="#ffabbf"/><rect y="4" width="20" height="2" fill="#ffabbf"/><rect y="8" width="20" height="2" fill="#ffabbf"/><rect y="12" width="20" height="2" fill="#ffabbf"/><rect y="16" width="20" height="2" fill="#ffabbf"/></g><path d="M 396.33 158.54 A 79.27 79.27 0 0 1  475.59999999999997 79.27 L 396.33 158.54 A 79.27 79.27 0 0 0 475.59999999999997 79.27" fill="#ffdae3"/><rect x="475.6" y="0" width="158.53333333333333" height="158.53333333333333" fill="#ffffff"/><g transform="translate(475.6,0) scale(3.9635) rotate(0)"><rect width="20" height="2" fill="#2147e2"/><rect y="4" width="20" height="2" fill="#2147e2"/><rect y="8" width="20" height="2" fill="#2147e2"/><rect y="12" width="20" height="2" fill="#2147e2"/><rect y="16" width="20" height="2" fill="#2147e2"/></g><g transform="translate(554.87,0) scale(3.9635) rotate(0)"><rect width="20" height="10" fill="#ff6b8e"/></g><g transform="translate(475.6,79.27) scale(3.9635) rotate(0)"><rect width="20" height="2" fill="#ffcad7"/><rect y="4" width="20" height="2" fill="#ffcad7"/><rect y="8" width="20" height="2" fill="#ffcad7"/><rect y="12" width="20" height="2" fill="#ffcad7"/><rect y="16" width="20" height="2" fill="#ffcad7"/></g><g transform="translate(554.87,79.27) scale(3.9635) rotate(0)"><path d="M10 0H20V10L10 20H0V10L10 0Z" fill="#ffeef2"/></g><path d="M 634.13 158.53 A 158.53 158.53 0 0 1  792.66 0 L 634.13 158.53 A 158.53 158.53 0 0 0 792.66 0" fill="#99aaf2"/><rect x="792.6666666666666" y="0" width="158.53333333333333" height="158.53333333333333" fill="#ffffff"/><g transform="translate(792.67,0) scale(3.9635) rotate(0)"><rect width="2" height="20" fill="#ff809e"/><rect x="4" width="2" height="20" fill="#ff809e"/><rect x="8" width="2" height="20" fill="#ff809e"/><rect x="12" width="2" height="20" fill="#ff809e"/><rect x="16" width="2" height="20" fill="#ff809e"/></g><g transform="translate(871.93,0) scale(3.9635) rotate(0)"><path d="M10 0H20V10L10 20H0V10L10 0Z" fill="#ff90ab"/></g><g transform="translate(792.67,79.27) scale(3.9635) rotate(0)"><path d="M10 0L20 10L10 20L0 10L10 0Z" fill="#ff406e"/></g><path d="M 871.93 79.27 A 79.27 79.27 0 0 1  951.1999999999999 158.54 L 871.93 79.27 A 79.27 79.27 0 0 0 951.1999999999999 158.54" fill="#ffdde5"/><rect x="951.2" y="0" width="158.53333333333333" height="158.53333333333333" fill="#ffffff"/><path d="M 951.2 0 A 79.27 79.27 0 0 1 1030.47 79.27 L 951.2 79.27" fill="#ff9fb6"/><g transform="translate(1030.47,0) scale(3.9635) rotate(0)"><path d="M10 0H20L0 20V10L10 0Z" fill="#ffd3dd"/><path d="M20 10V20H10L20 10Z" fill="#ffd3dd"/></g><g transform="translate(951.2,79.27) scale(3.9635) rotate(0)"><rect width="2" height="20" fill="#637eeb"/><rect x="4" width="2" height="20" fill="#637eeb"/><rect x="8" width="2" height="20" fill="#637eeb"/><rect x="12" width="2" height="20" fill="#637eeb"/><rect x="16" width="2" height="20" fill="#637eeb"/></g><g transform="translate(1030.47,79.27) scale(3.9635) rotate(0)"><path d="M10 0L20 10L10 20L0 10L10 0Z" fill="#ff6388"/></g><g transform="translate(0,158.53) scale(7.9265) rotate(0)"><rect width="20" height="2" fill="#4766e7"/><rect y="4" width="20" height="2" fill="#4766e7"/><rect y="8" width="20" height="2" fill="#4766e7"/><rect y="12" width="20" height="2" fill="#4766e7"/><rect y="16" width="20" height="2" fill="#4766e7"/></g><rect x="158.53333333333333" y="158.53333333333333" width="158.53333333333333" height="158.53333333333333" fill="#ffffff"/><g transform="translate(158.53,158.53) scale(3.9635) rotate(0)"><rect width="20" height="10" fill="#3e5ee6"/></g><g transform="translate(237.8,158.53) scale(3.9635) rotate(0)"><path d="M5 0H10L5 5L0 10V5L5 0Z" fill="#ffc1d0"/><path d="M20 15V20H15L20 15Z" fill="#ffc1d0"/><path d="M20 5V10L15 15L10 20H5L20 5Z" fill="#ffc1d0"/><path d="M15 0H20L5 15.0002L0 20.0002V15.0002L15 0Z" fill="#ffc1d0"/></g><g transform="translate(158.53,237.8) scale(3.9635) rotate(0)"><rect width="20" height="2" fill="#fffdfd"/><rect y="4" width="20" height="2" fill="#fffdfd"/><rect y="8" width="20" height="2" fill="#fffdfd"/><rect y="12" width="20" height="2" fill="#fffdfd"/><rect y="16" width="20" height="2" fill="#fffdfd"/></g><path d="M 237.8 317.07 A 79.27 79.27 0 0 0 317.07 237.8 L 237.8 237.8" fill="#ffd8e2"/><rect x="317.06666666666666" y="158.53333333333333" width="158.53333333333333" height="158.53333333333333" fill="#ffffff"/><g transform="translate(317.07,158.53) scale(3.9635) rotate(0)"><path d="M5 0H10L5 5L0 10V5L5 0Z" fill="#fcfcff"/><path d="M20 15V20H15L20 15Z" fill="#fcfcff"/><path d="M20 5V10L15 15L10 20H5L20 5Z" fill="#fcfcff"/><path d="M15 0H20L5 15.0002L0 20.0002V15.0002L15 0Z" fill="#fcfcff"/></g><g transform="translate(396.33,158.53) scale(3.9635) rotate(0)"><rect width="20" height="10" fill="#ff86a2"/></g><path d="M 317.07 237.8 A 79.27 79.27 0 0 1  396.34 317.07 L 317.07 237.8 A 79.27 79.27 0 0 0 396.34 317.07" fill="#5572e9"/><path d="M 396.33 237.8 A 79.27 79.27 0 0 1  475.59999999999997 317.07 L 396.33 237.8 A 79.27 79.27 0 0 0 475.59999999999997 317.07" fill="#8398ef"/><g transform="translate(475.6,158.53) scale(7.9265) rotate(0)"><path d="M10 0H20L0 20V10L10 0Z" fill="#9eaff2"/><path d="M20 10V20H10L20 10Z" fill="#9eaff2"/></g><g transform="translate(634.13,158.53) scale(7.9265) rotate(0)"><path d="M5 0H10L5 5L0 10V5L5 0Z" fill="#2d50e4"/><path d="M20 15V20H15L20 15Z" fill="#2d50e4"/><path d="M20 5V10L15 15L10 20H5L20 5Z" fill="#2d50e4"/><path d="M15 0H20L5 15.0002L0 20.0002V15.0002L15 0Z" fill="#2d50e4"/></g><g transform="translate(792.67,158.53) scale(7.9265) rotate(0)"><rect width="2" height="20" fill="#ff537c"/><rect x="4" width="2" height="20" fill="#ff537c"/><rect x="8" width="2" height="20" fill="#ff537c"/><rect x="12" width="2" height="20" fill="#ff537c"/><rect x="16" width="2" height="20" fill="#ff537c"/></g><g transform="translate(951.2,158.53) scale(7.9265) rotate(0)"><rect width="2" height="20" fill="#ffbece"/><rect x="4" width="2" height="20" fill="#ffbece"/><rect x="8" width="2" height="20" fill="#ffbece"/><rect x="12" width="2" height="20" fill="#ffbece"/><rect x="16" width="2" height="20" fill="#ffbece"/></g><g transform="translate(0,317.07) scale(7.9265) rotate(0)"><path d="M10 0H20L0 20V10L10 0Z" fill="#ff8ba7"/><path d="M20 10V20H10L20 10Z" fill="#ff8ba7"/></g><path d="M 158.53 317.07 A 158.53 158.53 0 0 1  317.06 475.6 L 158.53 317.07 A 158.53 158.53 0 0 0 317.06 475.6" fill="#ff6489"/><g transform="translate(317.07,317.07) scale(7.9265) rotate(0)"><path d="M10 0H20V10L10 20H0V10L10 0Z" fill="#b5c2f5"/></g><g transform="translate(475.6,317.07) scale(7.9265) rotate(0)"><path d="M10 0H20V10L10 20H0V10L10 0Z" fill="#b5c1f5"/></g><path d="M 634.13 317.07 A 158.53 158.53 0 0 1 792.66 475.6 L 634.13 475.6" fill="#99aaf2"/><rect x="792.6666666666666" y="317.06666666666666" width="158.53333333333333" height="158.53333333333333" fill="#ffffff"/><g transform="translate(792.67,317.07) scale(3.9635) rotate(0)"><path d="M10 0H20V10L10 20H0V10L10 0Z" fill="#b7c3f6"/></g><path d="M 871.93 317.07 A 79.27 79.27 0 0 1  951.1999999999999 396.34 L 871.93 317.07 A 79.27 79.27 0 0 0 951.1999999999999 396.34" fill="#ff7999"/><g transform="translate(792.67,396.33) scale(3.9635) rotate(0)"><path d="M10 0H20L0 20V10L10 0Z" fill="#ff3c6a"/><path d="M20 10V20H10L20 10Z" fill="#ff3c6a"/></g><g transform="translate(871.93,396.33) scale(3.9635) rotate(0)"><rect width="20" height="10" fill="#637deb"/></g><g transform="translate(951.2,317.07) scale(7.9265) rotate(0)"><rect width="20" height="10" fill="#ff92ac"/></g></g></svg>